ply
format ascii 1.0
comment Created by Blender 2.80 (sub 75) - www.blender.org, source file: ''
element vertex 76
property float x
property float y
property float z
property float nx
property float ny
property float nz
property float s
property float t
element face 144
property list uchar uint vertex_indices
end_header
-0.000000 0.000000 0.364710 0.000000 0.000000 -0.999969 0.088293 0.964954
-0.119344 0.000000 0.364710 -0.744102 0.000000 -0.668050 0.088293 0.964954
-0.112147 0.038575 0.364710 -0.694266 0.266427 -0.668538 0.088293 0.964954
-0.119344 0.000000 0.439886 -0.744102 0.000000 0.668050 0.088293 0.964954
-0.112147 0.038575 0.439886 -0.694266 0.266427 0.668538 0.088293 0.964954
-0.000000 0.000000 0.439886 0.000000 0.000000 1.000000 0.088293 0.964954
-0.091423 0.072497 0.364710 -0.556108 0.492080 -0.669729 0.088293 0.964954
-0.091423 0.072497 0.439886 -0.556108 0.492080 0.669729 0.088293 0.964954
-0.059672 0.097674 0.364710 -0.356029 0.650349 -0.671010 0.088293 0.964954
-0.059672 0.097674 0.439886 -0.356029 0.650349 0.671010 0.088293 0.964954
-0.020724 0.111071 0.364710 -0.122135 0.730583 -0.671804 0.088293 0.964954
-0.020724 0.111071 0.439886 -0.122135 0.730583 0.671804 0.088293 0.964954
0.020724 0.111071 0.364710 0.122135 0.730583 -0.671804 0.088293 0.964954
0.020724 0.111071 0.439886 0.122135 0.730583 0.671804 0.088293 0.964954
0.059672 0.097674 0.364710 0.356029 0.650349 -0.671010 0.088293 0.964954
0.059672 0.097674 0.439886 0.356029 0.650349 0.671010 0.088293 0.964954
0.091423 0.072497 0.364710 0.556108 0.492080 -0.669729 0.088293 0.964954
0.091423 0.072497 0.439886 0.556108 0.492080 0.669729 0.088293 0.964954
0.112146 0.038575 0.364710 0.694266 0.266427 -0.668538 0.088293 0.964954
0.112146 0.038575 0.439886 0.694266 0.266427 0.668538 0.088293 0.964954
0.119344 0.000000 0.364710 0.744102 0.000000 -0.668050 0.088293 0.964954
0.119344 0.000000 0.439886 0.744102 0.000000 0.668050 0.088293 0.964954
0.112146 -0.038575 0.364710 0.694266 -0.266427 -0.668538 0.088293 0.964954
0.112146 -0.038575 0.439886 0.694266 -0.266427 0.668538 0.088293 0.964954
0.091423 -0.072497 0.364710 0.556108 -0.492080 -0.669729 0.088293 0.964954
0.091423 -0.072497 0.439886 0.556108 -0.492080 0.669729 0.088293 0.964954
0.059672 -0.097674 0.364710 0.356029 -0.650349 -0.671010 0.088293 0.964954
0.059672 -0.097674 0.439886 0.356029 -0.650349 0.671010 0.088293 0.964954
0.020724 -0.111071 0.364710 0.122135 -0.730583 -0.671804 0.088293 0.964954
0.020724 -0.111071 0.439886 0.122135 -0.730583 0.671804 0.088293 0.964954
-0.020724 -0.111071 0.364710 -0.122135 -0.730583 -0.671804 0.088293 0.964954
-0.020724 -0.111071 0.439886 -0.122135 -0.730583 0.671804 0.088293 0.964954
-0.059672 -0.097674 0.364710 -0.356029 -0.650349 -0.671010 0.088293 0.964954
-0.059672 -0.097674 0.439886 -0.356029 -0.650349 0.671010 0.088293 0.964954
-0.091423 -0.072497 0.364710 -0.556108 -0.492080 -0.669729 0.088293 0.964954
-0.091423 -0.072497 0.439886 -0.556108 -0.492080 0.669729 0.088293 0.964954
-0.112147 -0.038575 0.364710 -0.694266 -0.266427 -0.668538 0.088293 0.964954
-0.112147 -0.038575 0.439886 -0.694266 -0.266427 0.668538 0.088293 0.964954
-0.000000 -0.000000 -0.439886 0.000000 0.000000 -1.000000 0.088293 0.964954
-0.119344 -0.000000 -0.439886 -0.744102 0.000000 -0.668050 0.088293 0.964954
-0.112147 0.038575 -0.439886 -0.694266 0.266427 -0.668538 0.088293 0.964954
-0.119344 -0.000000 -0.364710 -0.744102 0.000000 0.668050 0.088293 0.964954
-0.112147 0.038575 -0.364710 -0.694266 0.266427 0.668538 0.088293 0.964954
-0.000000 -0.000000 -0.364710 0.000000 0.000000 1.000000 0.088293 0.964954
-0.091423 0.072497 -0.439886 -0.556108 0.492080 -0.669729 0.088293 0.964954
-0.091423 0.072497 -0.364710 -0.556108 0.492080 0.669729 0.088293 0.964954
-0.059672 0.097674 -0.439886 -0.356029 0.650349 -0.671010 0.088293 0.964954
-0.059672 0.097674 -0.364711 -0.356029 0.650349 0.671010 0.088293 0.964954
-0.020724 0.111071 -0.439886 -0.122135 0.730583 -0.671804 0.088293 0.964954
-0.020724 0.111071 -0.364711 -0.122135 0.730583 0.671804 0.088293 0.964954
0.020724 0.111071 -0.439886 0.122135 0.730583 -0.671804 0.088293 0.964954
0.020724 0.111071 -0.364711 0.122135 0.730583 0.671804 0.088293 0.964954
0.059672 0.097674 -0.439886 0.356029 0.650349 -0.671010 0.088293 0.964954
0.059672 0.097674 -0.364711 0.356029 0.650349 0.671010 0.088293 0.964954
0.091422 0.072497 -0.439886 0.556108 0.492080 -0.669729 0.088293 0.964954
0.091422 0.072497 -0.364710 0.556108 0.492080 0.669729 0.088293 0.964954
0.112146 0.038575 -0.439886 0.694266 0.266427 -0.668538 0.088293 0.964954
0.112146 0.038575 -0.364710 0.694266 0.266427 0.668538 0.088293 0.964954
0.119344 -0.000000 -0.439886 0.744102 0.000000 -0.668050 0.088293 0.964954
0.119344 -0.000000 -0.364710 0.744102 0.000000 0.668050 0.088293 0.964954
0.112146 -0.038575 -0.439886 0.694266 -0.266427 -0.668538 0.088293 0.964954
0.112146 -0.038575 -0.364710 0.694266 -0.266427 0.668538 0.088293 0.964954
0.091422 -0.072497 -0.439886 0.556108 -0.492080 -0.669729 0.088293 0.964954
0.091422 -0.072497 -0.364710 0.556108 -0.492080 0.669729 0.088293 0.964954
0.059672 -0.097674 -0.439886 0.356029 -0.650349 -0.671010 0.088293 0.964954
0.059672 -0.097674 -0.364710 0.356029 -0.650349 0.671010 0.088293 0.964954
0.020724 -0.111071 -0.439886 0.122135 -0.730583 -0.671804 0.088293 0.964954
0.020724 -0.111071 -0.364710 0.122135 -0.730583 0.671804 0.088293 0.964954
-0.020724 -0.111071 -0.439886 -0.122135 -0.730583 -0.671804 0.088293 0.964954
-0.020724 -0.111071 -0.364710 -0.122135 -0.730583 0.671804 0.088293 0.964954
-0.059672 -0.097674 -0.439886 -0.356029 -0.650349 -0.671010 0.088293 0.964954
-0.059672 -0.097674 -0.364710 -0.356029 -0.650349 0.671010 0.088293 0.964954
-0.091423 -0.072497 -0.439886 -0.556108 -0.492080 -0.669729 0.088293 0.964954
-0.091423 -0.072497 -0.364710 -0.556108 -0.492080 0.669729 0.088293 0.964954
-0.112147 -0.038575 -0.439886 -0.694266 -0.266427 -0.668538 0.088293 0.964954
-0.112147 -0.038575 -0.364710 -0.694266 -0.266427 0.668538 0.088293 0.964954
3 0 1 2
3 1 3 4
3 1 4 2
3 3 5 4
3 0 2 6
3 2 4 7
3 2 7 6
3 4 5 7
3 0 6 8
3 6 7 9
3 6 9 8
3 7 5 9
3 0 8 10
3 8 9 11
3 8 11 10
3 9 5 11
3 0 10 12
3 10 11 13
3 10 13 12
3 11 5 13
3 0 12 14
3 12 13 15
3 12 15 14
3 13 5 15
3 0 14 16
3 14 15 17
3 14 17 16
3 15 5 17
3 0 16 18
3 16 17 19
3 16 19 18
3 17 5 19
3 0 18 20
3 18 19 21
3 18 21 20
3 19 5 21
3 0 20 22
3 20 21 23
3 20 23 22
3 21 5 23
3 0 22 24
3 22 23 25
3 22 25 24
3 23 5 25
3 0 24 26
3 24 25 27
3 24 27 26
3 25 5 27
3 0 26 28
3 26 27 29
3 26 29 28
3 27 5 29
3 0 28 30
3 28 29 31
3 28 31 30
3 29 5 31
3 0 30 32
3 30 31 33
3 30 33 32
3 31 5 33
3 0 32 34
3 32 33 35
3 32 35 34
3 33 5 35
3 0 34 36
3 34 35 37
3 34 37 36
3 35 5 37
3 0 36 1
3 36 37 3
3 36 3 1
3 37 5 3
3 38 39 40
3 39 41 42
3 39 42 40
3 41 43 42
3 38 40 44
3 40 42 45
3 40 45 44
3 42 43 45
3 38 44 46
3 44 45 47
3 44 47 46
3 45 43 47
3 38 46 48
3 46 47 49
3 46 49 48
3 47 43 49
3 38 48 50
3 48 49 51
3 48 51 50
3 49 43 51
3 38 50 52
3 50 51 53
3 50 53 52
3 51 43 53
3 38 52 54
3 52 53 55
3 52 55 54
3 53 43 55
3 38 54 56
3 54 55 57
3 54 57 56
3 55 43 57
3 38 56 58
3 56 57 59
3 56 59 58
3 57 43 59
3 38 58 60
3 58 59 61
3 58 61 60
3 59 43 61
3 38 60 62
3 60 61 63
3 60 63 62
3 61 43 63
3 38 62 64
3 62 63 65
3 62 65 64
3 63 43 65
3 38 64 66
3 64 65 67
3 64 67 66
3 65 43 67
3 38 66 68
3 66 67 69
3 66 69 68
3 67 43 69
3 38 68 70
3 68 69 71
3 68 71 70
3 69 43 71
3 38 70 72
3 70 71 73
3 70 73 72
3 71 43 73
3 38 72 74
3 72 73 75
3 72 75 74
3 73 43 75
3 38 74 39
3 74 75 41
3 74 41 39
3 75 43 41
