ply
format ascii 1.0
comment Created by Blender 2.80 (sub 75) - www.blender.org, source file: ''
element vertex 56
property float x
property float y
property float z
property float nx
property float ny
property float nz
property float s
property float t
element face 36
property list uchar uint vertex_indices
end_header
0.870615 0.091680 -0.401966 1.000000 0.000000 0.000000 0.221932 0.971548
0.870615 0.295239 -0.401966 1.000000 0.000000 0.000000 0.221932 0.971548
0.870615 0.295239 0.401320 1.000000 0.000000 0.000000 0.221932 0.971548
0.870615 0.091681 0.401320 1.000000 0.000000 0.000000 0.221932 0.971548
-0.340875 0.351057 0.401320 0.000000 0.000000 1.000000 0.221932 0.971548
-0.862893 0.265387 0.401320 0.000000 0.000000 1.000000 0.221932 0.971548
-0.815885 0.091681 0.401320 0.000000 0.000000 1.000000 0.221932 0.971548
-0.340875 0.091681 0.401320 0.000000 0.000000 1.000000 0.221932 0.971548
-0.815885 0.091681 0.401320 -0.965280 -0.261217 0.000000 0.221932 0.971548
-0.862893 0.265387 0.401320 -0.965280 -0.261217 0.000000 0.221932 0.971548
-0.862893 0.265387 -0.401966 -0.965280 -0.261217 0.000000 0.221932 0.971548
-0.815885 0.091680 -0.401966 -0.965280 -0.261217 0.000000 0.221932 0.971548
0.509297 0.351057 -0.401966 -0.000000 -0.000000 -1.000000 0.221932 0.971548
0.870615 0.295239 -0.401966 -0.000000 -0.000000 -1.000000 0.221932 0.971548
0.870615 0.091680 -0.401966 -0.000000 -0.000000 -1.000000 0.221932 0.971548
0.509297 0.091680 -0.401966 0.000000 -0.000000 -1.000000 0.221932 0.971548
0.870615 0.295239 -0.401966 0.152673 0.988277 -0.000000 0.221932 0.971548
0.509297 0.351057 -0.401966 0.152673 0.988277 -0.000000 0.221932 0.971548
0.509297 0.351057 0.401320 0.152673 0.988277 -0.000000 0.221932 0.971548
0.870615 0.295239 0.401320 0.152673 0.988277 -0.000000 0.221932 0.971548
-0.815885 0.091680 -0.401966 0.000000 -1.000000 0.000000 0.221932 0.971548
-0.340875 0.091680 -0.401966 0.000000 -1.000000 0.000000 0.221932 0.971548
-0.340875 0.091681 0.401320 0.000000 -1.000000 0.000000 0.221932 0.971548
-0.815885 0.091681 0.401320 0.000000 -1.000000 0.000000 0.221932 0.971548
0.509297 0.091681 0.401320 0.000000 0.000000 1.000000 0.221932 0.971548
0.509297 0.351057 0.401320 0.000000 0.000000 1.000000 0.221932 0.971548
-0.340875 0.091680 -0.401966 0.000000 0.000000 -1.000000 0.221932 0.971548
-0.815885 0.091680 -0.401966 0.000000 0.000000 -1.000000 0.221932 0.971548
-0.862893 0.265387 -0.401966 0.000000 0.000000 -1.000000 0.221932 0.971548
-0.340875 0.351057 -0.401966 -0.000000 -0.000000 -1.000000 0.221932 0.971548
-0.340875 0.351057 -0.401966 -0.161946 0.986800 -0.000000 0.221932 0.971548
-0.862893 0.265387 -0.401966 -0.161946 0.986800 -0.000000 0.221932 0.971548
-0.862893 0.265387 0.401320 -0.161946 0.986800 -0.000000 0.221932 0.971548
-0.340875 0.351057 0.401320 -0.161946 0.986800 -0.000000 0.221932 0.971548
0.509297 0.091680 -0.401966 0.000000 -1.000000 0.000000 0.221932 0.971548
0.509297 0.091681 0.401320 0.000000 -1.000000 0.000000 0.221932 0.971548
0.463361 0.658013 -0.401966 0.000000 1.000000 -0.000000 0.221932 0.971548
-0.207507 0.658013 -0.401966 0.000000 1.000000 -0.000000 0.221932 0.971548
-0.207507 0.658013 0.401320 0.000000 1.000000 -0.000000 0.221932 0.971548
0.463361 0.658013 0.401320 0.000000 1.000000 -0.000000 0.221932 0.971548
0.870615 0.091681 0.401320 0.000000 0.000000 1.000000 0.221932 0.971548
0.870615 0.295239 0.401320 0.000000 0.000000 1.000000 0.221932 0.971548
0.870615 0.091680 -0.401966 0.000000 -1.000000 0.000000 0.221932 0.971548
0.870615 0.091681 0.401320 0.000000 -1.000000 0.000000 0.221932 0.971548
0.509297 0.351057 -0.401966 0.988987 0.148002 -0.000000 0.221932 0.971548
0.463361 0.658013 -0.401966 0.988987 0.148002 -0.000000 0.221932 0.971548
0.463361 0.658013 0.401320 0.988987 0.148002 -0.000000 0.221932 0.971548
0.509297 0.351057 0.401320 0.988987 0.148002 -0.000000 0.221932 0.971548
0.463361 0.658013 0.401320 -0.000000 0.000000 1.000000 0.221932 0.971548
-0.207507 0.658013 0.401320 -0.000000 0.000000 1.000000 0.221932 0.971548
-0.340875 0.351057 0.401320 -0.917170 0.398496 0.000000 0.221932 0.971548
-0.207507 0.658013 0.401320 -0.917170 0.398496 0.000000 0.221932 0.971548
-0.207507 0.658013 -0.401966 -0.917170 0.398496 0.000000 0.221932 0.971548
-0.340875 0.351057 -0.401966 -0.917170 0.398496 -0.000000 0.221932 0.971548
-0.207507 0.658013 -0.401966 -0.000000 -0.000000 -1.000000 0.221932 0.971548
0.463361 0.658013 -0.401966 -0.000000 -0.000000 -1.000000 0.221932 0.971548
3 0 1 2
3 0 2 3
3 4 5 6
3 4 6 7
3 8 9 10
3 8 10 11
3 12 13 14
3 12 14 15
3 16 17 18
3 16 18 19
3 20 21 22
3 20 22 23
3 7 24 25
3 7 25 4
3 26 27 28
3 26 28 29
3 30 31 32
3 30 32 33
3 21 34 35
3 21 35 22
3 15 26 29
3 15 29 12
3 36 37 38
3 36 38 39
3 24 40 41
3 24 41 25
3 34 42 43
3 34 43 35
3 44 45 46
3 44 46 47
3 25 48 49
3 25 49 4
3 50 51 52
3 50 52 53
3 29 54 55
3 29 55 12
