ply
format ascii 1.0
comment Created by Blender 2.80 (sub 75) - www.blender.org, source file: ''
element vertex 130
property float x
property float y
property float z
property float nx
property float ny
property float nz
property float s
property float t
element face 124
property list uchar uint vertex_indices
end_header
1.000000 -0.580634 0.605998 0.685324 0.000000 0.728202 1.000000 0.511360
-1.000000 -0.580634 0.605998 -0.685324 0.000000 0.728202 1.000000 0.988640
-1.000000 -0.696907 0.594353 -0.685354 -0.144292 0.713736 0.968750 0.988640
1.000000 -0.696908 0.594353 0.685354 -0.144292 0.713736 0.968750 0.511360
-1.000000 -0.808712 0.559869 -0.685446 -0.282510 0.671041 0.937500 0.988640
1.000000 -0.808713 0.559869 0.685446 -0.282510 0.671041 0.937500 0.511360
-1.000000 -0.911753 0.503869 -0.685537 -0.409009 0.602222 0.906250 0.988640
1.000000 -0.911753 0.503869 0.685537 -0.409009 0.602222 0.906250 0.511360
-1.000000 -1.002068 0.428505 -0.685690 -0.518845 0.510453 0.875000 0.988640
1.000000 -1.002068 0.428505 0.685690 -0.518845 0.510453 0.875000 0.511360
-1.000000 -1.076188 0.336674 -0.685812 -0.608112 0.399762 0.843750 0.988640
1.000000 -1.076188 0.336674 0.685812 -0.608112 0.399762 0.843750 0.511360
-1.000000 -1.131264 0.231905 -0.685934 -0.673849 0.274575 0.812500 0.988640
1.000000 -1.131264 0.231905 0.685934 -0.673849 0.274575 0.812500 0.511360
-1.000000 -1.165180 0.118224 -0.685995 -0.714042 0.139714 0.781250 0.988640
1.000000 -1.165180 0.118224 0.685995 -0.714042 0.139714 0.781250 0.511360
-1.000000 -1.176632 0.000000 -0.686026 -0.727561 0.000000 0.750000 0.988640
1.000000 -1.176632 0.000000 0.686026 -0.727561 0.000000 0.750000 0.511360
-1.000000 -1.165180 -0.118224 -0.685995 -0.714042 -0.139714 0.718750 0.988640
1.000000 -1.165180 -0.118224 0.685995 -0.714042 -0.139714 0.718750 0.511360
-1.000000 -1.131264 -0.231905 -0.685934 -0.673849 -0.274575 0.687500 0.988640
1.000000 -1.131264 -0.231905 0.685934 -0.673849 -0.274575 0.687500 0.511360
-1.000000 -1.076188 -0.336674 -0.685812 -0.608112 -0.399762 0.656250 0.988640
1.000000 -1.076188 -0.336674 0.685812 -0.608112 -0.399762 0.656250 0.511360
-1.000000 -1.002068 -0.428505 -0.685690 -0.518845 -0.510453 0.625000 0.988640
1.000000 -1.002068 -0.428505 0.685690 -0.518845 -0.510453 0.625000 0.511360
-1.000000 -0.911753 -0.503869 -0.685537 -0.409009 -0.602222 0.593750 0.988640
1.000000 -0.911753 -0.503869 0.685537 -0.409009 -0.602222 0.593750 0.511360
-1.000000 -0.808712 -0.559869 -0.685446 -0.282510 -0.671041 0.562500 0.988640
1.000000 -0.808712 -0.559869 0.685446 -0.282510 -0.671041 0.562500 0.511360
-1.000000 -0.696907 -0.594353 -0.685354 -0.144292 -0.713736 0.531250 0.988640
1.000000 -0.696907 -0.594353 0.685354 -0.144292 -0.713736 0.531250 0.511360
-1.000000 -0.580634 -0.605998 -0.685324 0.000000 -0.728202 0.500000 0.988640
1.000000 -0.580634 -0.605998 0.685324 0.000000 -0.728202 0.500000 0.511360
-1.000000 -0.464360 -0.594353 -0.685354 0.144292 -0.713736 0.468750 0.988640
1.000000 -0.464361 -0.594353 0.685354 0.144292 -0.713736 0.468750 0.511360
-1.000000 -0.352555 -0.559869 -0.685446 0.282510 -0.671041 0.437500 0.988640
1.000000 -0.352556 -0.559869 0.685446 0.282510 -0.671041 0.437500 0.511360
-1.000000 -0.249515 -0.503868 -0.685537 0.409009 -0.602222 0.406250 0.988640
1.000000 -0.249515 -0.503868 0.685537 0.409009 -0.602222 0.406250 0.511360
-1.000000 -0.159200 -0.428505 -0.685690 0.518845 -0.510453 0.375000 0.988640
1.000000 -0.159200 -0.428505 0.685690 0.518845 -0.510453 0.375000 0.511360
-1.000000 -0.085080 -0.336674 -0.685812 0.608112 -0.399762 0.343750 0.988640
1.000000 -0.085080 -0.336674 0.685812 0.608112 -0.399762 0.343750 0.511360
-1.000000 -0.030004 -0.231905 -0.685934 0.673849 -0.274575 0.312500 0.988640
1.000000 -0.030004 -0.231905 0.685934 0.673849 -0.274575 0.312500 0.511360
-1.000000 0.003912 -0.118224 -0.685995 0.714042 -0.139714 0.281250 0.988640
1.000000 0.003912 -0.118224 0.685995 0.714042 -0.139714 0.281250 0.511360
-1.000000 0.015364 0.000001 -0.686026 0.727561 0.000000 0.250000 0.988640
1.000000 0.015363 0.000001 0.686026 0.727561 0.000000 0.250000 0.511360
-1.000000 0.003911 0.118225 -0.685995 0.714042 0.139714 0.218750 0.988640
1.000000 0.003911 0.118225 0.685995 0.714042 0.139714 0.218750 0.511360
-1.000000 -0.030004 0.231906 -0.685934 0.673849 0.274575 0.187500 0.988640
1.000000 -0.030005 0.231906 0.685934 0.673849 0.274575 0.187500 0.511360
-1.000000 -0.085081 0.336675 -0.685812 0.608112 0.399762 0.156250 0.988640
1.000000 -0.085081 0.336675 0.685812 0.608112 0.399762 0.156250 0.511360
-1.000000 -0.159201 0.428506 -0.685690 0.518845 0.510453 0.125000 0.988640
1.000000 -0.159201 0.428506 0.685690 0.518845 0.510453 0.125000 0.511360
-1.000000 -0.249516 0.503869 -0.685537 0.409009 0.602222 0.093750 0.988640
1.000000 -0.249516 0.503869 0.685537 0.409009 0.602222 0.093750 0.511360
-1.000000 -0.352556 0.559869 -0.685446 0.282510 0.671041 0.062500 0.988640
1.000000 -0.352557 0.559869 0.685446 0.282510 0.671041 0.062500 0.511360
-1.000000 -0.808712 0.559869 -0.685446 -0.282510 0.671041 0.475227 0.167097
-1.000000 -0.696907 0.594353 -0.685354 -0.144292 0.713736 0.487073 0.212630
-1.000000 -0.580634 0.605998 -0.685324 0.000000 0.728202 0.489808 0.259599
-1.000000 -0.464362 0.594354 -0.685354 0.144292 0.713736 0.483328 0.306198
-1.000000 -0.352556 0.559869 -0.685446 0.282510 0.671041 0.467881 0.350638
-1.000000 -0.249516 0.503869 -0.685537 0.409009 0.602222 0.444061 0.391211
-1.000000 -0.159201 0.428506 -0.685690 0.518845 0.510453 0.412783 0.426357
-1.000000 -0.085081 0.336675 -0.685812 0.608112 0.399762 0.375250 0.454726
-1.000000 -0.030004 0.231906 -0.685934 0.673849 0.274575 0.332903 0.475227
-1.000000 0.003911 0.118225 -0.685995 0.714042 0.139714 0.287371 0.487073
-1.000000 0.015364 0.000001 -0.686026 0.727561 0.000000 0.240402 0.489808
-1.000000 0.003912 -0.118224 -0.685995 0.714042 -0.139714 0.193802 0.483328
-1.000000 -0.030004 -0.231905 -0.685934 0.673849 -0.274575 0.149362 0.467881
-1.000000 -0.085080 -0.336674 -0.685812 0.608112 -0.399762 0.108789 0.444061
-1.000000 -0.159200 -0.428505 -0.685690 0.518845 -0.510453 0.073643 0.412783
-1.000000 -0.249515 -0.503868 -0.685537 0.409009 -0.602222 0.045274 0.375250
-1.000000 -0.352555 -0.559869 -0.685446 0.282510 -0.671041 0.024773 0.332903
-1.000000 -0.464360 -0.594353 -0.685354 0.144292 -0.713736 0.012927 0.287370
-1.000000 -0.580634 -0.605998 -0.685324 0.000000 -0.728202 0.010192 0.240402
-1.000000 -0.696907 -0.594353 -0.685354 -0.144292 -0.713736 0.016672 0.193802
-1.000000 -0.808712 -0.559869 -0.685446 -0.282510 -0.671041 0.032120 0.149362
-1.000000 -0.911753 -0.503869 -0.685537 -0.409009 -0.602222 0.055940 0.108789
-1.000000 -1.002068 -0.428505 -0.685690 -0.518845 -0.510453 0.087217 0.073643
-1.000000 -1.076188 -0.336674 -0.685812 -0.608112 -0.399762 0.124751 0.045274
-1.000000 -1.131264 -0.231905 -0.685934 -0.673849 -0.274575 0.167097 0.024773
-1.000000 -1.165180 -0.118224 -0.685995 -0.714042 -0.139714 0.212630 0.012927
-1.000000 -1.176632 0.000000 -0.686026 -0.727561 0.000000 0.259599 0.010192
-1.000000 -1.165180 0.118224 -0.685995 -0.714042 0.139714 0.306198 0.016672
-1.000000 -1.131264 0.231905 -0.685934 -0.673849 0.274575 0.350638 0.032120
-1.000000 -1.076188 0.336674 -0.685812 -0.608112 0.399762 0.391211 0.055940
-1.000000 -1.002068 0.428505 -0.685690 -0.518845 0.510453 0.426357 0.087217
-1.000000 -0.911753 0.503869 -0.685537 -0.409009 0.602222 0.454726 0.124751
-1.000000 -0.464362 0.594354 -0.685354 0.144292 0.713736 0.031250 0.988640
1.000000 -0.464362 0.594354 0.685354 0.144292 0.713736 0.031250 0.511360
-1.000000 -0.580634 0.605998 -0.685324 0.000000 0.728202 0.000000 0.988640
1.000000 -0.580634 0.605998 0.685324 0.000000 0.728202 0.000000 0.511360
1.000000 -0.464362 0.594354 0.685354 0.144292 0.713736 0.483328 0.306198
1.000000 -0.580634 0.605998 0.685324 0.000000 0.728202 0.489808 0.259598
1.000000 -0.696908 0.594353 0.685354 -0.144292 0.713736 0.487073 0.212630
1.000000 -0.808713 0.559869 0.685446 -0.282510 0.671041 0.475227 0.167097
1.000000 -0.911753 0.503869 0.685537 -0.409009 0.602222 0.454726 0.124751
1.000000 -1.002068 0.428505 0.685690 -0.518845 0.510453 0.426357 0.087217
1.000000 -1.076188 0.336674 0.685812 -0.608112 0.399762 0.391211 0.055940
1.000000 -1.131264 0.231905 0.685934 -0.673849 0.274575 0.350638 0.032119
1.000000 -1.165180 0.118224 0.685995 -0.714042 0.139714 0.306198 0.016672
1.000000 -1.176632 0.000000 0.686026 -0.727561 0.000000 0.259599 0.010192
1.000000 -1.165180 -0.118224 0.685995 -0.714042 -0.139714 0.212630 0.012927
1.000000 -1.131264 -0.231905 0.685934 -0.673849 -0.274575 0.167097 0.024773
1.000000 -1.076188 -0.336674 0.685812 -0.608112 -0.399762 0.124751 0.045274
1.000000 -1.002068 -0.428505 0.685690 -0.518845 -0.510453 0.087217 0.073643
1.000000 -0.911753 -0.503869 0.685537 -0.409009 -0.602222 0.055940 0.108789
1.000000 -0.808712 -0.559869 0.685446 -0.282510 -0.671041 0.032120 0.149362
1.000000 -0.696907 -0.594353 0.685354 -0.144292 -0.713736 0.016672 0.193802
1.000000 -0.580634 -0.605998 0.685324 0.000000 -0.728202 0.010192 0.240402
1.000000 -0.464361 -0.594353 0.685354 0.144292 -0.713736 0.012927 0.287370
1.000000 -0.352556 -0.559869 0.685446 0.282510 -0.671041 0.024773 0.332903
1.000000 -0.249515 -0.503868 0.685537 0.409009 -0.602222 0.045274 0.375249
1.000000 -0.159200 -0.428505 0.685690 0.518845 -0.510453 0.073643 0.412783
1.000000 -0.085080 -0.336674 0.685812 0.608112 -0.399762 0.108789 0.444060
1.000000 -0.030004 -0.231905 0.685934 0.673849 -0.274575 0.149362 0.467881
1.000000 0.003912 -0.118224 0.685995 0.714042 -0.139714 0.193802 0.483328
1.000000 0.015363 0.000001 0.686026 0.727561 0.000000 0.240402 0.489808
1.000000 0.003911 0.118225 0.685995 0.714042 0.139714 0.287370 0.487073
1.000000 -0.030005 0.231906 0.685934 0.673849 0.274575 0.332903 0.475227
1.000000 -0.085081 0.336675 0.685812 0.608112 0.399762 0.375250 0.454726
1.000000 -0.159201 0.428506 0.685690 0.518845 0.510453 0.412783 0.426357
1.000000 -0.249516 0.503869 0.685537 0.409009 0.602222 0.444061 0.391211
1.000000 -0.352557 0.559869 0.685446 0.282510 0.671041 0.467881 0.350638
3 0 1 2
3 0 2 3
3 3 2 4
3 3 4 5
3 5 4 6
3 5 6 7
3 7 6 8
3 7 8 9
3 9 8 10
3 9 10 11
3 11 10 12
3 11 12 13
3 13 12 14
3 13 14 15
3 15 14 16
3 15 16 17
3 17 16 18
3 17 18 19
3 19 18 20
3 19 20 21
3 21 20 22
3 21 22 23
3 23 22 24
3 23 24 25
3 25 24 26
3 25 26 27
3 27 26 28
3 27 28 29
3 29 28 30
3 29 30 31
3 31 30 32
3 31 32 33
3 33 32 34
3 33 34 35
3 35 34 36
3 35 36 37
3 37 36 38
3 37 38 39
3 39 38 40
3 39 40 41
3 41 40 42
3 41 42 43
3 43 42 44
3 43 44 45
3 45 44 46
3 45 46 47
3 47 46 48
3 47 48 49
3 49 48 50
3 49 50 51
3 51 50 52
3 51 52 53
3 53 52 54
3 53 54 55
3 55 54 56
3 55 56 57
3 57 56 58
3 57 58 59
3 59 58 60
3 59 60 61
3 62 63 64
3 64 65 66
3 66 67 68
3 68 69 70
3 70 71 72
3 72 73 74
3 74 75 76
3 76 77 78
3 78 79 80
3 80 81 82
3 82 83 84
3 84 85 86
3 86 87 88
3 88 89 90
3 90 91 92
3 92 93 62
3 62 64 66
3 66 68 70
3 70 72 74
3 74 76 78
3 78 80 82
3 82 84 86
3 86 88 90
3 90 92 62
3 62 66 70
3 70 74 78
3 78 82 86
3 86 90 62
3 62 70 78
3 78 86 62
3 61 60 94
3 61 94 95
3 95 94 96
3 95 96 97
3 98 99 100
3 100 101 102
3 102 103 104
3 104 105 106
3 106 107 108
3 108 109 110
3 110 111 112
3 112 113 114
3 114 115 116
3 116 117 118
3 118 119 120
3 120 121 122
3 122 123 124
3 124 125 126
3 126 127 128
3 128 129 98
3 98 100 102
3 102 104 106
3 106 108 110
3 110 112 114
3 114 116 118
3 118 120 122
3 122 124 126
3 126 128 98
3 98 102 106
3 106 110 114
3 114 118 122
3 122 126 98
3 98 106 114
3 114 122 98
