ply
format ascii 1.0
comment Created by Blender 2.80 (sub 75) - www.blender.org, source file: ''
element vertex 213
property float x
property float y
property float z
property float nx
property float ny
property float nz
property float s
property float t
element face 124
property list uchar uint vertex_indices
end_header
1.000000 -0.580634 0.605998 -0.000000 -0.099645 0.995023 1.000095 0.505126
-1.000000 -0.580634 0.605998 -0.000000 -0.099645 0.995023 1.000095 0.994874
-1.000000 -0.696907 0.594353 -0.000000 -0.099645 0.995023 0.968839 0.994874
1.000000 -0.696908 0.594353 -0.000000 -0.099645 0.995023 0.968839 0.505126
1.000000 -0.696908 0.594353 -0.000000 -0.294735 0.955579 0.968839 0.505126
-1.000000 -0.696907 0.594353 -0.000000 -0.294735 0.955579 0.968839 0.994874
-1.000000 -0.808712 0.559869 -0.000000 -0.294735 0.955579 0.937583 0.994874
1.000000 -0.808713 0.559869 -0.000000 -0.294735 0.955579 0.937583 0.505126
1.000000 -0.808713 0.559869 -0.000000 -0.477514 0.878624 0.937583 0.505126
-1.000000 -0.808712 0.559869 -0.000000 -0.477514 0.878624 0.937583 0.994874
-1.000000 -0.911753 0.503869 -0.000000 -0.477514 0.878624 0.906327 0.994874
1.000000 -0.911753 0.503869 -0.000000 -0.477514 0.878624 0.906327 0.505126
1.000000 -0.911753 0.503869 -0.000000 -0.640690 0.767800 0.906327 0.505126
-1.000000 -0.911753 0.503869 -0.000000 -0.640690 0.767800 0.906327 0.994874
-1.000000 -1.002068 0.428505 -0.000000 -0.640690 0.767800 0.875071 0.994874
1.000000 -0.911753 0.503869 -0.000000 -0.640689 0.767800 0.906327 0.505126
-1.000000 -1.002068 0.428505 -0.000000 -0.640689 0.767800 0.875071 0.994874
1.000000 -1.002068 0.428505 -0.000000 -0.640689 0.767800 0.875071 0.505126
1.000000 -1.002068 0.428505 -0.000000 -0.778153 0.628075 0.875071 0.505126
-1.000000 -1.002068 0.428505 -0.000000 -0.778153 0.628075 0.875071 0.994874
-1.000000 -1.076188 0.336674 -0.000000 -0.778153 0.628075 0.843815 0.994874
1.000000 -1.076188 0.336674 -0.000000 -0.778153 0.628075 0.843815 0.505126
1.000000 -1.076188 0.336674 -0.000000 -0.885146 0.465313 0.843815 0.505126
-1.000000 -1.076188 0.336674 -0.000000 -0.885146 0.465313 0.843815 0.994874
-1.000000 -1.131264 0.231905 -0.000000 -0.885146 0.465313 0.812559 0.994874
1.000000 -1.131264 0.231905 -0.000000 -0.885146 0.465313 0.812559 0.505126
1.000000 -1.131264 0.231905 -0.000000 -0.958263 0.285889 0.812559 0.505126
-1.000000 -1.131264 0.231905 -0.000000 -0.958263 0.285889 0.812559 0.994874
-1.000000 -1.165180 0.118224 -0.000000 -0.958263 0.285889 0.781303 0.994874
1.000000 -1.165180 0.118224 -0.000000 -0.958263 0.285889 0.781303 0.505126
1.000000 -1.165180 0.118224 -0.000000 -0.995341 0.096415 0.781303 0.505126
-1.000000 -1.165180 0.118224 -0.000000 -0.995341 0.096415 0.781303 0.994874
-1.000000 -1.176632 0.000000 -0.000000 -0.995341 0.096415 0.750048 0.994874
1.000000 -1.176632 0.000000 -0.000000 -0.995341 0.096415 0.750048 0.505126
1.000000 -1.176632 0.000000 -0.000000 -0.995341 -0.096415 0.750048 0.505126
-1.000000 -1.176632 0.000000 -0.000000 -0.995341 -0.096415 0.750048 0.994874
-1.000000 -1.165180 -0.118224 -0.000000 -0.995341 -0.096415 0.718792 0.994874
1.000000 -1.165180 -0.118224 -0.000000 -0.995341 -0.096415 0.718792 0.505126
1.000000 -1.165180 -0.118224 -0.000000 -0.958263 -0.285889 0.718792 0.505126
-1.000000 -1.165180 -0.118224 -0.000000 -0.958263 -0.285889 0.718792 0.994874
-1.000000 -1.131264 -0.231905 -0.000000 -0.958263 -0.285889 0.687536 0.994874
1.000000 -1.131264 -0.231905 -0.000000 -0.958263 -0.285889 0.687536 0.505126
1.000000 -1.131264 -0.231905 -0.000000 -0.885146 -0.465313 0.687536 0.505126
-1.000000 -1.131264 -0.231905 -0.000000 -0.885146 -0.465313 0.687536 0.994874
-1.000000 -1.076188 -0.336674 -0.000000 -0.885146 -0.465313 0.656280 0.994874
1.000000 -1.076188 -0.336674 -0.000000 -0.885146 -0.465313 0.656280 0.505126
1.000000 -1.076188 -0.336674 -0.000000 -0.778153 -0.628075 0.656280 0.505126
-1.000000 -1.076188 -0.336674 -0.000000 -0.778153 -0.628075 0.656280 0.994874
-1.000000 -1.002068 -0.428505 -0.000000 -0.778153 -0.628075 0.625024 0.994874
1.000000 -1.002068 -0.428505 -0.000000 -0.778153 -0.628075 0.625024 0.505126
1.000000 -1.002068 -0.428505 -0.000000 -0.640690 -0.767800 0.625024 0.505126
-1.000000 -1.002068 -0.428505 -0.000000 -0.640690 -0.767800 0.625024 0.994874
-1.000000 -0.911753 -0.503869 -0.000000 -0.640690 -0.767800 0.593768 0.994874
1.000000 -0.911753 -0.503869 -0.000000 -0.640690 -0.767800 0.593768 0.505126
1.000000 -0.911753 -0.503869 -0.000000 -0.477514 -0.878624 0.593768 0.505126
-1.000000 -0.911753 -0.503869 -0.000000 -0.477514 -0.878624 0.593768 0.994874
-1.000000 -0.808712 -0.559869 -0.000000 -0.477514 -0.878624 0.562512 0.994874
1.000000 -0.808712 -0.559869 -0.000000 -0.477514 -0.878624 0.562512 0.505126
1.000000 -0.808712 -0.559869 -0.000000 -0.294735 -0.955579 0.562512 0.505126
-1.000000 -0.808712 -0.559869 -0.000000 -0.294735 -0.955579 0.562512 0.994874
-1.000000 -0.696907 -0.594353 -0.000000 -0.294735 -0.955579 0.531256 0.994874
1.000000 -0.696907 -0.594353 -0.000000 -0.294735 -0.955579 0.531256 0.505126
1.000000 -0.696907 -0.594353 -0.000000 -0.099645 -0.995023 0.531256 0.505126
-1.000000 -0.696907 -0.594353 -0.000000 -0.099645 -0.995023 0.531256 0.994874
-1.000000 -0.580634 -0.605998 -0.000000 -0.099645 -0.995023 0.500000 0.994874
1.000000 -0.580634 -0.605998 -0.000000 -0.099645 -0.995023 0.500000 0.505126
1.000000 -0.580634 -0.605998 0.000000 0.099646 -0.995023 0.500000 0.505126
-1.000000 -0.580634 -0.605998 0.000000 0.099646 -0.995023 0.500000 0.994874
-1.000000 -0.464360 -0.594353 0.000000 0.099646 -0.995023 0.468744 0.994874
1.000000 -0.464361 -0.594353 0.000000 0.099646 -0.995023 0.468744 0.505126
1.000000 -0.464361 -0.594353 0.000000 0.294736 -0.955579 0.468744 0.505126
-1.000000 -0.464360 -0.594353 0.000000 0.294736 -0.955579 0.468744 0.994874
-1.000000 -0.352555 -0.559869 0.000000 0.294736 -0.955579 0.437488 0.994874
1.000000 -0.352556 -0.559869 0.000000 0.294736 -0.955579 0.437488 0.505126
1.000000 -0.352556 -0.559869 0.000000 0.477515 -0.878624 0.437488 0.505126
-1.000000 -0.352555 -0.559869 0.000000 0.477515 -0.878624 0.437488 0.994874
-1.000000 -0.249515 -0.503868 0.000000 0.477515 -0.878624 0.406232 0.994874
1.000000 -0.249515 -0.503868 0.000000 0.477515 -0.878624 0.406232 0.505126
1.000000 -0.249515 -0.503868 0.000000 0.640690 -0.767800 0.406232 0.505126
-1.000000 -0.249515 -0.503868 0.000000 0.640690 -0.767800 0.406232 0.994874
-1.000000 -0.159200 -0.428505 0.000000 0.640690 -0.767800 0.374976 0.994874
1.000000 -0.159200 -0.428505 0.000000 0.640690 -0.767800 0.374976 0.505126
1.000000 -0.159200 -0.428505 0.000000 0.778153 -0.628075 0.374976 0.505126
-1.000000 -0.159200 -0.428505 0.000000 0.778153 -0.628075 0.374976 0.994874
-1.000000 -0.085080 -0.336674 0.000000 0.778153 -0.628075 0.343720 0.994874
1.000000 -0.085080 -0.336674 0.000000 0.778153 -0.628075 0.343720 0.505126
1.000000 -0.085080 -0.336674 0.000000 0.885146 -0.465313 0.343720 0.505126
-1.000000 -0.085080 -0.336674 0.000000 0.885146 -0.465313 0.343720 0.994874
-1.000000 -0.030004 -0.231905 0.000000 0.885146 -0.465313 0.312464 0.994874
1.000000 -0.030004 -0.231905 0.000000 0.885146 -0.465313 0.312464 0.505126
1.000000 -0.030004 -0.231905 0.000000 0.958263 -0.285888 0.312464 0.505126
-1.000000 -0.030004 -0.231905 0.000000 0.958263 -0.285888 0.312464 0.994874
-1.000000 0.003912 -0.118224 0.000000 0.958263 -0.285888 0.281208 0.994874
1.000000 0.003912 -0.118224 0.000000 0.958263 -0.285888 0.281208 0.505126
1.000000 0.003912 -0.118224 0.000000 0.995341 -0.096414 0.281208 0.505126
-1.000000 0.003912 -0.118224 0.000000 0.995341 -0.096414 0.281208 0.994874
-1.000000 0.015364 0.000001 0.000000 0.995341 -0.096414 0.249952 0.994874
1.000000 0.015363 0.000001 0.000000 0.995341 -0.096414 0.249952 0.505126
1.000000 0.015363 0.000001 0.000000 0.995341 0.096416 0.249952 0.505126
-1.000000 0.015364 0.000001 0.000000 0.995341 0.096416 0.249952 0.994874
-1.000000 0.003911 0.118225 0.000000 0.995341 0.096416 0.218697 0.994874
1.000000 0.003911 0.118225 0.000000 0.995341 0.096416 0.218697 0.505126
1.000000 0.003911 0.118225 0.000000 0.958262 0.285890 0.218697 0.505126
-1.000000 0.003911 0.118225 0.000000 0.958262 0.285890 0.218697 0.994874
-1.000000 -0.030004 0.231906 0.000000 0.958262 0.285890 0.187441 0.994874
1.000000 -0.030005 0.231906 0.000000 0.958262 0.285890 0.187441 0.505126
1.000000 -0.030005 0.231906 0.000000 0.885146 0.465314 0.187441 0.505126
-1.000000 -0.030004 0.231906 0.000000 0.885146 0.465314 0.187441 0.994874
-1.000000 -0.085081 0.336675 0.000000 0.885146 0.465314 0.156185 0.994874
1.000000 -0.085081 0.336675 0.000000 0.885146 0.465314 0.156185 0.505126
1.000000 -0.085081 0.336675 0.000000 0.778152 0.628076 0.156185 0.505126
-1.000000 -0.085081 0.336675 0.000000 0.778152 0.628076 0.156185 0.994874
-1.000000 -0.159201 0.428506 0.000000 0.778152 0.628076 0.124929 0.994874
1.000000 -0.159201 0.428506 0.000000 0.778152 0.628076 0.124929 0.505126
1.000000 -0.159201 0.428506 0.000000 0.640689 0.767801 0.124929 0.505126
-1.000000 -0.159201 0.428506 0.000000 0.640689 0.767801 0.124929 0.994874
-1.000000 -0.249516 0.503869 0.000000 0.640689 0.767801 0.093673 0.994874
1.000000 -0.249516 0.503869 0.000000 0.640689 0.767801 0.093673 0.505126
1.000000 -0.249516 0.503869 0.000000 0.477513 0.878624 0.093673 0.505126
-1.000000 -0.249516 0.503869 0.000000 0.477513 0.878624 0.093673 0.994874
-1.000000 -0.352556 0.559869 0.000000 0.477513 0.878624 0.062417 0.994874
1.000000 -0.249516 0.503869 0.000000 0.477513 0.878625 0.093673 0.505126
-1.000000 -0.352556 0.559869 0.000000 0.477513 0.878625 0.062417 0.994874
1.000000 -0.352557 0.559869 0.000000 0.477513 0.878625 0.062417 0.505126
-1.000000 -0.808712 0.559869 -1.000000 0.000000 0.000000 0.910247 0.201812
-1.000000 -0.696907 0.594353 -1.000000 0.000000 0.000000 0.919087 0.235787
-1.000000 -0.580634 0.605998 -1.000000 0.000000 0.000000 0.921128 0.270834
-1.000000 -0.580634 0.605998 -1.000000 -0.000000 -0.000003 0.921128 0.270834
-1.000000 -0.464362 0.594354 -1.000000 -0.000000 -0.000003 0.916292 0.305606
-1.000000 -0.352556 0.559869 -1.000000 -0.000000 -0.000003 0.904766 0.338766
-1.000000 -0.352556 0.559869 -1.000000 0.000000 0.000000 0.904766 0.338766
-1.000000 -0.249516 0.503869 -1.000000 0.000000 0.000000 0.886992 0.369041
-1.000000 -0.159201 0.428506 -1.000000 0.000000 0.000000 0.863653 0.395266
-1.000000 -0.085081 0.336675 -1.000000 0.000000 0.000000 0.835646 0.416434
-1.000000 -0.030004 0.231906 -1.000000 0.000000 0.000000 0.804048 0.431732
-1.000000 0.003911 0.118225 -1.000000 0.000000 0.000000 0.770073 0.440571
-1.000000 0.015364 0.000001 -1.000000 0.000000 0.000000 0.735025 0.442612
-1.000000 0.003912 -0.118224 -1.000000 0.000000 0.000000 0.700253 0.437777
-1.000000 -0.030004 -0.231905 -1.000000 0.000000 0.000000 0.667093 0.426250
-1.000000 -0.085080 -0.336674 -1.000000 0.000000 0.000000 0.636819 0.408476
-1.000000 -0.159200 -0.428505 -1.000000 0.000000 0.000000 0.610593 0.385137
-1.000000 -0.249515 -0.503868 -1.000000 0.000000 0.000000 0.589425 0.357131
-1.000000 -0.352555 -0.559869 -1.000000 0.000000 0.000000 0.574127 0.325532
-1.000000 -0.352555 -0.559869 -1.000000 -0.000000 0.000003 0.574127 0.325532
-1.000000 -0.464360 -0.594353 -1.000000 -0.000000 0.000003 0.565288 0.291557
-1.000000 -0.580634 -0.605998 -1.000000 -0.000000 0.000003 0.563247 0.256510
-1.000000 -0.580634 -0.605998 -1.000000 0.000000 0.000000 0.563247 0.256510
-1.000000 -0.696907 -0.594353 -1.000000 0.000000 0.000000 0.568083 0.221738
-1.000000 -0.808712 -0.559869 -1.000000 0.000000 0.000000 0.579609 0.188578
-1.000000 -0.911753 -0.503869 -1.000000 0.000000 0.000000 0.597383 0.158303
-1.000000 -1.002068 -0.428505 -1.000000 0.000000 0.000000 0.620722 0.132078
-1.000000 -1.076188 -0.336674 -1.000000 0.000000 0.000000 0.648729 0.110910
-1.000000 -1.131264 -0.231905 -1.000000 0.000000 0.000000 0.680327 0.095612
-1.000000 -1.165180 -0.118224 -1.000000 0.000000 0.000000 0.714303 0.086773
-1.000000 -1.176632 0.000000 -1.000000 0.000000 0.000000 0.749350 0.084732
-1.000000 -1.165180 0.118224 -1.000000 0.000000 0.000000 0.784122 0.089567
-1.000000 -1.131264 0.231905 -1.000000 0.000000 0.000000 0.817282 0.101094
-1.000000 -1.076188 0.336674 -1.000000 0.000000 0.000000 0.847556 0.118868
-1.000000 -1.002068 0.428505 -1.000000 0.000000 0.000000 0.873782 0.142207
-1.000000 -0.911753 0.503869 -1.000000 0.000000 0.000000 0.894950 0.170213
-1.000000 -0.808712 0.559869 -1.000000 0.000000 -0.000001 0.910247 0.201812
-1.000000 -0.580634 0.605998 -1.000000 0.000000 -0.000001 0.921128 0.270834
-1.000000 -0.352556 0.559869 -1.000000 0.000000 -0.000001 0.904766 0.338766
-1.000000 -0.352555 -0.559869 -1.000000 0.000000 0.000001 0.574127 0.325532
-1.000000 -0.580634 -0.605998 -1.000000 0.000000 0.000001 0.563247 0.256510
-1.000000 -0.808712 -0.559869 -1.000000 0.000000 0.000001 0.579609 0.188578
1.000000 -0.352557 0.559869 0.000000 0.294734 0.955579 0.062417 0.505126
-1.000000 -0.352556 0.559869 0.000000 0.294734 0.955579 0.062417 0.994874
-1.000000 -0.464362 0.594354 0.000000 0.294734 0.955579 0.031161 0.994874
1.000000 -0.464362 0.594354 0.000000 0.294734 0.955579 0.031161 0.505126
1.000000 -0.464362 0.594354 0.000000 0.099645 0.995023 0.031161 0.505126
-1.000000 -0.464362 0.594354 0.000000 0.099645 0.995023 0.031161 0.994874
-1.000000 -0.580634 0.605998 0.000000 0.099645 0.995023 -0.000095 0.994874
1.000000 -0.580634 0.605998 0.000000 0.099645 0.995023 -0.000095 0.505126
1.000000 -0.464362 0.594354 1.000000 -0.000000 0.000000 0.911957 0.303079
1.000000 -0.580634 0.605998 1.000000 -0.000000 0.000000 0.916727 0.268783
1.000000 -0.696908 0.594353 1.000000 -0.000000 0.000000 0.914714 0.234215
1.000000 -0.808713 0.559869 1.000000 0.000000 0.000000 0.905995 0.200705
1.000000 -0.911753 0.503869 1.000000 0.000000 0.000000 0.890907 0.169539
1.000000 -1.002068 0.428505 1.000000 0.000000 0.000000 0.870028 0.141915
1.000000 -1.076188 0.336674 1.000000 0.000000 0.000000 0.844162 0.118895
1.000000 -1.131264 0.231905 1.000000 0.000000 0.000000 0.814301 0.101365
1.000000 -1.165180 0.118224 1.000000 0.000000 0.000000 0.781595 0.089996
1.000000 -1.176632 0.000000 1.000000 0.000000 -0.000000 0.747299 0.085226
1.000000 -1.165180 -0.118224 1.000000 0.000000 -0.000000 0.712731 0.087240
1.000000 -1.131264 -0.231905 1.000000 0.000000 0.000000 0.679220 0.095958
1.000000 -1.076188 -0.336674 1.000000 0.000000 0.000000 0.648054 0.111046
1.000000 -1.002068 -0.428505 1.000000 0.000000 0.000000 0.620431 0.131925
1.000000 -0.911753 -0.503869 1.000000 0.000000 0.000000 0.597411 0.157791
1.000000 -0.808712 -0.559869 1.000000 0.000000 0.000000 0.579880 0.187652
1.000000 -0.696907 -0.594353 1.000000 0.000000 0.000000 0.568512 0.220358
1.000000 -0.580634 -0.605998 1.000000 0.000000 0.000000 0.563742 0.254655
1.000000 -0.464361 -0.594353 1.000000 0.000000 0.000000 0.565755 0.289222
1.000000 -0.464361 -0.594353 1.000000 -0.000001 0.000002 0.565755 0.289222
1.000000 -0.352556 -0.559869 1.000000 -0.000001 0.000002 0.574473 0.322733
1.000000 -0.249515 -0.503868 1.000000 -0.000001 0.000002 0.589562 0.353899
1.000000 -0.249515 -0.503868 1.000000 0.000000 0.000000 0.589562 0.353899
1.000000 -0.159200 -0.428505 1.000000 0.000000 0.000000 0.610440 0.381522
1.000000 -0.085080 -0.336674 1.000000 0.000000 0.000000 0.636307 0.404542
1.000000 -0.030004 -0.231905 1.000000 0.000000 0.000000 0.666167 0.422073
1.000000 0.003912 -0.118224 1.000000 0.000000 0.000000 0.698874 0.433442
1.000000 0.015363 0.000001 1.000000 0.000000 0.000000 0.733170 0.438211
1.000000 0.003911 0.118225 1.000000 0.000000 0.000000 0.767738 0.436198
1.000000 -0.030005 0.231906 1.000000 0.000000 0.000000 0.801249 0.427480
1.000000 -0.085081 0.336675 1.000000 0.000000 0.000000 0.832415 0.412391
1.000000 -0.159201 0.428506 1.000000 0.000000 0.000000 0.860038 0.391513
1.000000 -0.249516 0.503869 1.000000 0.000000 0.000000 0.883058 0.365646
1.000000 -0.249516 0.503869 1.000000 -0.000001 -0.000002 0.883058 0.365646
1.000000 -0.352557 0.559869 1.000000 -0.000001 -0.000002 0.900589 0.335786
1.000000 -0.464362 0.594354 1.000000 -0.000001 -0.000002 0.911957 0.303079
1.000000 -0.696907 -0.594353 1.000000 0.000000 -0.000001 0.568512 0.220358
1.000000 -0.464361 -0.594353 1.000000 0.000000 -0.000001 0.565755 0.289222
1.000000 -0.249515 -0.503868 1.000000 0.000000 -0.000001 0.589562 0.353899
3 0 1 2
3 0 2 3
3 4 5 6
3 4 6 7
3 8 9 10
3 8 10 11
3 12 13 14
3 15 16 17
3 18 19 20
3 18 20 21
3 22 23 24
3 22 24 25
3 26 27 28
3 26 28 29
3 30 31 32
3 30 32 33
3 34 35 36
3 34 36 37
3 38 39 40
3 38 40 41
3 42 43 44
3 42 44 45
3 46 47 48
3 46 48 49
3 50 51 52
3 50 52 53
3 54 55 56
3 54 56 57
3 58 59 60
3 58 60 61
3 62 63 64
3 62 64 65
3 66 67 68
3 66 68 69
3 70 71 72
3 70 72 73
3 74 75 76
3 74 76 77
3 78 79 80
3 78 80 81
3 82 83 84
3 82 84 85
3 86 87 88
3 86 88 89
3 90 91 92
3 90 92 93
3 94 95 96
3 94 96 97
3 98 99 100
3 98 100 101
3 102 103 104
3 102 104 105
3 106 107 108
3 106 108 109
3 110 111 112
3 110 112 113
3 114 115 116
3 114 116 117
3 118 119 120
3 121 122 123
3 124 125 126
3 127 128 129
3 130 131 132
3 132 133 134
3 134 135 136
3 136 137 138
3 138 139 140
3 140 141 142
3 143 144 145
3 146 147 148
3 148 149 150
3 150 151 152
3 152 153 154
3 154 155 156
3 156 157 158
3 158 159 124
3 160 161 162
3 130 132 134
3 134 136 138
3 138 140 142
3 163 164 165
3 148 150 152
3 152 154 156
3 156 158 124
3 124 130 134
3 134 138 142
3 142 148 152
3 152 156 124
3 124 134 142
3 142 152 124
3 166 167 168
3 166 168 169
3 170 171 172
3 170 172 173
3 174 175 176
3 176 177 178
3 178 179 180
3 180 181 182
3 182 183 184
3 184 185 186
3 186 187 188
3 188 189 190
3 190 191 192
3 193 194 195
3 196 197 198
3 198 199 200
3 200 201 202
3 202 203 204
3 204 205 206
3 207 208 209
3 174 176 178
3 178 180 182
3 182 184 186
3 186 188 190
3 210 211 212
3 196 198 200
3 200 202 204
3 204 206 174
3 174 178 182
3 182 186 190
3 190 196 200
3 200 204 174
3 174 182 190
3 190 200 174
