ply
format ascii 1.0
comment Created by Blender 2.80 (sub 75) - www.blender.org, source file: ''
element vertex 167
property float x
property float y
property float z
property float nx
property float ny
property float nz
property float s
property float t
element face 168
property list uchar uint vertex_indices
end_header
-8.999998 0.000000 -13.000000 -0.000000 1.000000 0.000000 0.000526 -2.544190
-10.999998 0.000000 -13.000000 -0.000000 1.000000 0.000000 0.000527 -3.180727
-10.999998 0.000000 -11.000000 -0.000000 1.000000 0.000000 0.637063 -3.180726
-8.999998 0.000000 -11.000000 0.000000 1.000000 0.000000 0.637062 -2.544189
3.000000 0.000000 -24.999998 -0.000000 1.000000 0.000000 -0.637637 -1.271123
1.000001 0.000000 -24.999998 -0.000000 1.000000 0.000000 -0.637637 -0.634586
1.000001 0.000000 -23.000000 -0.000000 1.000000 0.000000 -1.274173 -0.634587
3.000000 0.000000 -23.000000 0.000000 1.000000 0.000000 -1.274173 -1.271123
11.000000 0.000000 -24.999998 -0.000000 1.000000 0.000000 -0.637638 -3.817264
9.000000 0.000000 -24.999998 -0.000000 1.000000 0.000000 -0.637637 -3.180728
9.000000 0.000000 -23.000000 -0.000000 1.000000 0.000000 -1.274173 -3.180728
11.000000 0.000000 -23.000000 0.000000 1.000000 0.000000 -1.274173 -3.817264
-10.999998 0.000000 -1.000000 -0.000000 1.000000 0.000000 0.638692 -3.180726
-12.999998 0.000000 -1.000000 -0.000000 1.000000 0.000000 0.638693 -3.817262
-12.999998 0.000000 1.000000 -0.000000 1.000000 0.000000 1.275229 -3.817262
-10.999998 0.000000 1.000000 0.000000 1.000000 0.000000 1.275229 -3.180726
11.000000 0.000000 -13.000000 -0.000000 1.000000 0.000000 0.000528 3.821170
9.000000 0.000000 -13.000000 -0.000000 1.000000 0.000000 0.000527 3.184635
9.000000 0.000000 -11.000000 -0.000000 1.000000 0.000000 0.637062 3.184635
11.000000 0.000000 -11.000000 0.000000 1.000000 0.000000 0.637064 3.821169
-12.999998 0.000000 -13.000000 -0.000000 1.000000 0.000000 0.000528 -3.817263
-12.999998 0.000000 -11.000000 -0.000000 1.000000 0.000000 0.637064 -3.817262
7.000000 0.000000 -13.000000 -0.000000 1.000000 0.000000 0.000526 2.548099
5.000000 0.000000 -13.000000 -0.000000 1.000000 0.000000 0.000526 1.911563
5.000000 0.000000 -11.000000 -0.000000 1.000000 0.000000 0.637062 1.911563
7.000000 0.000000 -11.000000 0.000000 1.000000 0.000000 0.637062 2.548099
-4.999999 0.000000 -13.000000 -0.000000 1.000000 0.000000 0.000526 -1.271117
-6.999998 0.000000 -13.000000 -0.000000 1.000000 0.000000 0.000526 -1.907653
-6.999998 0.000000 -11.000000 -0.000000 1.000000 0.000000 0.637062 -1.907653
-4.999999 0.000000 -11.000000 0.000000 1.000000 0.000000 0.637062 -1.271117
-6.999998 0.000000 -1.000000 -0.000000 1.000000 0.000000 0.638691 -1.907652
-8.999998 0.000000 -1.000000 -0.000000 1.000000 0.000000 0.638692 -2.544189
-8.999998 0.000000 1.000000 -0.000000 1.000000 0.000000 1.275228 -2.544189
-6.999998 0.000000 1.000000 0.000000 1.000000 0.000000 1.275228 -1.907652
-0.999999 0.000000 -13.000000 -0.000000 1.000000 0.000000 0.000525 0.001955
-2.999999 0.000000 -13.000000 -0.000000 1.000000 0.000000 0.000525 -0.634581
-2.999999 0.000000 -11.000000 -0.000000 1.000000 0.000000 0.637061 -0.634581
-0.999999 0.000000 -11.000000 0.000000 1.000000 0.000000 0.637061 0.001955
3.000000 0.000000 -13.000000 -0.000000 1.000000 0.000000 0.000526 1.275028
1.000001 0.000000 -13.000000 -0.000000 1.000000 0.000000 0.000526 0.638491
1.000001 0.000000 -11.000000 -0.000000 1.000000 0.000000 0.637061 0.638491
3.000000 0.000000 -11.000000 0.000000 1.000000 0.000000 0.637062 1.275027
12.999999 0.000000 -13.000000 -0.000000 1.000000 0.000000 0.000529 4.457705
12.999999 0.000000 -11.000000 0.000000 1.000000 0.000000 0.637064 4.457704
12.999999 0.000000 -24.999998 -0.000000 1.000000 0.000000 -0.637638 -4.453799
12.999999 0.000000 -22.999998 0.000000 1.000000 0.000000 -1.274173 -4.453799
7.000000 0.000000 -24.999998 -0.000000 1.000000 0.000000 -0.637638 -2.544193
7.000000 0.000000 -23.000000 -0.000000 1.000000 0.000000 -1.274173 -2.544194
5.000000 0.000000 -24.999998 -0.000000 1.000000 0.000000 -0.637637 -1.907658
5.000000 0.000000 -23.000000 -0.000000 1.000000 0.000000 -1.274172 -1.907658
-0.999999 0.000000 -24.999998 -0.000000 1.000000 0.000000 -0.637637 0.001949
-0.999999 0.000000 -23.000000 -0.000000 1.000000 0.000000 -1.274173 0.001949
-2.999999 0.000000 -24.999998 -0.000000 1.000000 0.000000 -0.637637 0.638486
-2.999999 0.000000 -23.000000 -0.000000 1.000000 0.000000 -1.274173 0.638486
-4.999999 0.000000 -24.999998 -0.000000 1.000000 0.000000 -0.637638 1.275022
-6.999998 0.000000 -24.999998 -0.000000 1.000000 0.000000 -0.637638 1.911558
-6.999998 0.000000 -23.000000 -0.000000 1.000000 0.000000 -1.274175 1.911558
-4.999999 0.000000 -23.000000 0.000000 1.000000 0.000000 -1.274174 1.275022
-8.999998 0.000000 -24.999998 -0.000000 1.000000 0.000000 -0.637638 2.548095
-8.999998 0.000000 -23.000000 -0.000000 1.000000 0.000000 -1.274175 2.548094
-10.999998 0.000000 -24.999998 -0.000000 1.000000 0.000000 -0.637638 3.184632
-12.999998 0.000000 -24.999998 -0.000000 1.000000 0.000000 -0.637639 3.821169
-12.999998 0.000000 -23.000000 -0.000000 1.000000 0.000000 -1.274175 3.821168
-10.999998 0.000000 -23.000000 0.000000 1.000000 0.000000 -1.274175 3.184631
12.999999 0.000000 -26.999996 -0.000000 1.000000 0.000000 -0.001103 -4.453799
10.999999 0.000000 -26.999996 -0.000000 1.000000 0.000000 -0.001102 -3.817265
8.999999 0.000000 -26.999996 -0.000000 1.000000 0.000000 -0.001102 -3.180729
6.999999 0.000000 -26.999996 -0.000000 1.000000 0.000000 -0.001102 -2.544194
3.000000 0.000000 -26.999996 -0.000000 1.000000 0.000000 -0.001101 -1.271122
1.000000 0.000000 -26.999996 -0.000000 1.000000 0.000000 -0.001101 -0.634586
4.999999 0.000000 -26.999996 -0.000000 1.000000 0.000000 -0.001102 -1.907658
-1.000000 0.000000 -26.999996 -0.000000 1.000000 0.000000 -0.001101 0.001949
-3.000000 0.000000 -26.999996 -0.000000 1.000000 0.000000 -0.001101 0.638486
-4.999999 0.000000 -26.999996 -0.000000 1.000000 0.000000 -0.001102 1.275023
-6.999999 0.000000 -26.999996 -0.000000 1.000000 0.000000 -0.001102 1.911559
-8.999999 0.000000 -26.999996 -0.000000 1.000000 0.000000 -0.001101 2.548095
-10.999999 0.000000 -26.999996 -0.000000 1.000000 0.000000 -0.001101 3.184632
-12.999999 0.000000 -26.999996 -0.000000 1.000000 0.000000 -0.001102 3.821169
-2.999999 0.000000 -1.000000 -0.000000 1.000000 0.000000 0.638691 -0.634580
-4.999999 0.000000 -1.000000 -0.000000 1.000000 0.000000 0.638691 -1.271116
-4.999999 0.000000 1.000000 -0.000000 1.000000 0.000000 1.275227 -1.271116
-2.999999 0.000000 1.000000 0.000000 1.000000 0.000000 1.275227 -0.634580
1.000001 0.000000 -1.000000 -0.000000 1.000000 0.000000 0.638691 0.638493
-0.999999 0.000000 -1.000000 -0.000000 1.000000 0.000000 0.638691 0.001956
-0.999999 0.000000 1.000000 -0.000000 1.000000 0.000000 1.275227 0.001956
1.000001 0.000000 1.000000 0.000000 1.000000 0.000000 1.275227 0.638492
5.000000 0.000000 -1.000000 -0.000000 1.000000 0.000000 0.638692 1.911563
3.000000 0.000000 -1.000000 -0.000000 1.000000 0.000000 0.638691 1.275028
3.000000 0.000000 1.000000 -0.000000 1.000000 0.000000 1.275227 1.275028
5.000000 0.000000 1.000000 0.000000 1.000000 0.000000 1.275227 1.911563
-14.999998 0.000000 -26.999996 -0.000000 1.000000 0.000000 -0.001103 4.457704
-14.999998 0.000000 -24.999998 -0.000000 1.000000 0.000000 -0.637640 4.457705
-14.999998 0.000000 -23.000000 -0.000000 1.000000 0.000000 -1.274176 4.457704
7.000000 0.000000 -1.000000 -0.000000 1.000000 0.000000 0.638692 2.548100
7.000000 0.000000 1.000000 0.000000 1.000000 0.000000 1.275228 2.548099
9.000000 0.000000 -1.000000 -0.000000 1.000000 0.000000 0.638693 3.184635
9.000000 0.000000 1.000000 0.000000 1.000000 0.000000 1.275228 3.184635
11.000000 0.000000 -1.000000 -0.000000 1.000000 0.000000 0.638694 3.821170
11.000000 0.000000 1.000000 0.000000 1.000000 0.000000 1.275229 3.821169
12.999999 0.000000 -1.000000 -0.000000 1.000000 0.000000 0.638695 4.457705
12.999999 0.000000 1.000000 0.000000 1.000000 0.000000 1.275230 4.457704
-14.999998 0.000000 -13.000000 -0.000000 1.000000 0.000000 0.000528 -4.453799
-14.999998 0.000000 -11.000000 -0.000000 1.000000 0.000000 0.637065 -4.453798
-14.999998 0.000000 -1.000000 -0.000000 1.000000 0.000000 0.638693 -4.453799
-14.999998 0.000000 1.000000 -0.000000 1.000000 0.000000 1.275231 -4.453799
11.000000 0.000000 -13.000000 0.000000 0.000000 -1.000000 0.349826 4.363989
12.999999 0.000000 -13.000000 0.000000 0.000000 -1.000000 0.349826 5.007987
12.999999 -0.699817 -13.000000 0.000000 0.000000 -1.000000 -0.347942 5.007981
11.000000 -0.699817 -13.000000 0.000000 0.000000 -1.000000 -0.347942 4.363984
-0.999999 0.000000 -13.000000 0.000000 0.000000 -1.000000 0.349827 0.499999
1.000001 0.000000 -13.000000 0.000000 0.000000 -1.000000 0.349827 1.143997
1.000001 -0.699817 -13.000000 0.000000 0.000000 -1.000000 -0.347941 1.143997
-0.999999 -0.699817 -13.000000 0.000000 0.000000 -1.000000 -0.347941 0.500000
-2.999999 0.000000 -23.000000 0.000000 0.000000 1.000000 1.048067 1.143997
-4.999999 0.000000 -23.000000 0.000000 0.000000 1.000000 1.048067 1.787995
-4.999999 -0.699817 -23.000000 0.000000 0.000000 1.000000 0.350299 1.787994
-2.999999 -0.699817 -23.000000 0.000000 -0.000000 1.000000 0.350299 1.143997
-2.999999 0.000000 -13.000000 0.000000 0.000000 -1.000000 0.349827 -0.143999
-2.999999 -0.699817 -13.000000 0.000000 0.000000 -1.000000 -0.347941 -0.143997
-4.999999 0.000000 -13.000000 0.000000 0.000000 -1.000000 0.349826 -0.787997
-4.999999 -0.699817 -13.000000 0.000000 0.000000 -1.000000 -0.347941 -0.787994
7.000000 0.000000 -23.000000 0.000000 0.000000 1.000000 1.048067 -2.075994
5.000000 0.000000 -23.000000 0.000000 0.000000 1.000000 1.048067 -1.431995
5.000000 -0.699817 -23.000000 0.000000 0.000000 1.000000 0.350299 -1.431992
7.000000 -0.699817 -23.000000 0.000000 -0.000000 1.000000 0.350299 -2.075989
-0.999999 0.000000 -23.000000 0.000000 0.000000 1.000000 1.048067 0.499999
-0.999999 -0.699817 -23.000000 0.000000 -0.000000 1.000000 0.350299 0.499999
-12.999998 0.000000 -13.000000 0.000000 0.000000 -1.000000 0.349826 -3.363989
-10.999998 0.000000 -13.000000 0.000000 0.000000 -1.000000 0.349826 -2.719990
-10.999998 -0.699817 -13.000000 0.000000 0.000000 -1.000000 -0.347942 -2.719986
-12.999998 -0.699817 -13.000000 0.000000 0.000000 -1.000000 -0.347942 -3.363983
-10.999998 0.000000 -23.000000 0.000000 0.000000 1.000000 1.048067 3.719989
-12.999998 0.000000 -23.000000 0.000000 0.000000 1.000000 1.048067 4.363988
-12.999998 -0.699817 -23.000000 0.000000 0.000000 1.000000 0.350299 4.363984
-10.999998 -0.699817 -23.000000 0.000000 -0.000000 1.000000 0.350299 3.719986
-6.999998 0.000000 -23.000000 0.000000 0.000000 1.000000 1.048067 2.431993
-8.999998 0.000000 -23.000000 0.000000 0.000000 1.000000 1.048067 3.075992
-8.999998 -0.699817 -23.000000 0.000000 0.000000 1.000000 0.350299 3.075989
-6.999998 -0.699817 -23.000000 0.000000 -0.000000 1.000000 0.350299 2.431992
9.000000 0.000000 -23.000000 0.000000 0.000000 1.000000 1.048067 -2.719992
9.000000 -0.699817 -23.000000 0.000000 -0.000000 1.000000 0.350299 -2.719986
-14.999998 0.000000 -23.000000 0.000000 0.000000 1.000000 1.048067 5.007987
-14.999998 -0.699817 -23.000000 0.000000 0.000000 1.000000 0.350298 5.007980
-14.999998 0.000000 -13.000000 0.000000 0.000000 -1.000000 0.349826 -4.007986
-14.999998 -0.699817 -13.000000 0.000000 0.000000 -1.000000 -0.347942 -4.007979
9.000000 0.000000 -13.000000 0.000000 0.000000 -1.000000 0.349826 3.719991
9.000000 -0.699817 -13.000000 0.000000 0.000000 -1.000000 -0.347941 3.719986
1.000001 0.000000 -23.000000 0.000000 0.000000 1.000000 1.048067 -0.144000
1.000001 -0.699817 -23.000000 0.000000 -0.000000 1.000000 0.350299 -0.143998
12.999999 0.000000 -22.999998 -0.000001 0.000000 1.000000 1.048066 -4.007987
11.000000 0.000000 -23.000000 -0.000001 0.000000 1.000000 1.048066 -3.363989
11.000000 -0.699817 -23.000000 -0.000001 0.000000 1.000000 0.350299 -3.363984
12.999999 -0.699817 -22.999998 -0.000001 0.000000 1.000000 0.350298 -4.007980
7.000000 0.000000 -13.000000 0.000000 0.000000 -1.000000 0.349826 3.075992
7.000000 -0.699817 -13.000000 0.000000 0.000000 -1.000000 -0.347941 3.075989
3.000000 0.000000 -23.000000 0.000000 0.000000 1.000000 1.048067 -0.787997
3.000000 -0.699817 -23.000000 0.000000 0.000000 1.000000 0.350299 -0.787995
5.000000 0.000000 -13.000000 0.000000 0.000000 -1.000000 0.349827 2.431994
5.000000 -0.699817 -13.000000 0.000000 0.000000 -1.000000 -0.347941 2.431992
-8.999998 0.000000 -13.000000 0.000000 0.000000 -1.000000 0.349826 -2.075993
-8.999998 -0.699817 -13.000000 0.000000 0.000000 -1.000000 -0.347941 -2.075988
3.000000 0.000000 -13.000000 0.000000 0.000000 -1.000000 0.349827 1.787996
3.000000 -0.699817 -13.000000 0.000000 0.000000 -1.000000 -0.347941 1.787994
-6.999998 0.000000 -13.000000 0.000000 0.000000 -1.000000 0.349826 -1.431995
-6.999998 -0.699817 -13.000000 0.000000 0.000000 -1.000000 -0.347941 -1.431992
11.000000 0.000000 -23.000000 0.000000 0.000000 1.000000 1.048066 -3.363989
11.000000 -0.699817 -23.000000 0.000000 -0.000000 1.000000 0.350299 -3.363984
3 0 1 2
3 0 2 3
3 4 5 6
3 4 6 7
3 8 9 10
3 8 10 11
3 12 13 14
3 12 14 15
3 16 17 18
3 16 18 19
3 1 20 21
3 1 21 2
3 22 23 24
3 22 24 25
3 26 27 28
3 26 28 29
3 30 31 32
3 30 32 33
3 34 35 36
3 34 36 37
3 38 39 40
3 38 40 41
3 31 12 15
3 31 15 32
3 42 16 19
3 42 19 43
3 17 22 25
3 17 25 18
3 23 38 41
3 23 41 24
3 44 8 11
3 44 11 45
3 9 46 47
3 9 47 10
3 46 48 49
3 46 49 47
3 48 4 7
3 48 7 49
3 5 50 51
3 5 51 6
3 50 52 53
3 50 53 51
3 54 55 56
3 54 56 57
3 55 58 59
3 55 59 56
3 60 61 62
3 60 62 63
3 64 65 8
3 64 8 44
3 66 67 46
3 66 46 9
3 68 69 5
3 68 5 4
3 67 70 48
3 67 48 46
3 52 54 57
3 52 57 53
3 58 60 63
3 58 63 59
3 65 66 9
3 65 9 8
3 70 68 4
3 70 4 48
3 69 71 50
3 69 50 5
3 71 72 52
3 71 52 50
3 72 73 54
3 72 54 52
3 73 74 55
3 73 55 54
3 74 75 58
3 74 58 55
3 75 76 60
3 75 60 58
3 76 77 61
3 76 61 60
3 78 79 80
3 78 80 81
3 82 83 84
3 82 84 85
3 86 87 88
3 86 88 89
3 77 90 91
3 77 91 61
3 61 91 92
3 61 92 62
3 79 30 33
3 79 33 80
3 87 82 85
3 87 85 88
3 93 86 89
3 93 89 94
3 95 93 94
3 95 94 96
3 97 95 96
3 97 96 98
3 99 97 98
3 99 98 100
3 20 101 102
3 20 102 21
3 83 78 81
3 83 81 84
3 27 0 3
3 27 3 28
3 35 26 29
3 35 29 36
3 39 34 37
3 39 37 40
3 13 103 104
3 13 104 14
3 105 106 107
3 105 107 108
3 109 110 111
3 109 111 112
3 113 114 115
3 113 115 116
3 117 109 112
3 117 112 118
3 119 117 118
3 119 118 120
3 121 122 123
3 121 123 124
3 125 113 116
3 125 116 126
3 127 128 129
3 127 129 130
3 131 132 133
3 131 133 134
3 135 136 137
3 135 137 138
3 139 121 124
3 139 124 140
3 114 135 138
3 114 138 115
3 132 141 142
3 132 142 133
3 143 127 130
3 143 130 144
3 145 105 108
3 145 108 146
3 147 125 126
3 147 126 148
3 149 150 151
3 149 151 152
3 153 145 146
3 153 146 154
3 122 155 156
3 122 156 123
3 136 131 134
3 136 134 137
3 157 153 154
3 157 154 158
3 155 147 148
3 155 148 156
3 128 159 160
3 128 160 129
3 161 157 158
3 161 158 162
3 159 163 164
3 159 164 160
3 110 161 162
3 110 162 111
3 165 139 140
3 165 140 166
3 163 119 120
3 163 120 164
