ply
format ascii 1.0
comment Created by Blender 2.80 (sub 75) - www.blender.org, source file: ''
element vertex 165
property float x
property float y
property float z
property float nx
property float ny
property float nz
property float s
property float t
element face 252
property list uchar uint vertex_indices
end_header
-8.999998 0.000000 -13.000000 -0.000000 1.000000 0.000000 0.679071 0.866306
-10.999998 0.000000 -13.000000 -0.000000 1.000000 0.000000 0.726768 0.866306
-10.999998 0.000000 -11.000000 -0.000000 1.000000 0.000000 0.726768 0.914004
-8.999998 0.000000 -11.000000 0.000000 1.000000 0.000000 0.679071 0.914004
3.000000 0.000000 -24.999998 -0.000000 1.000000 0.000000 0.392886 0.580122
1.000001 0.000000 -24.999998 -0.000000 1.000000 0.000000 0.440584 0.580122
1.000001 0.000000 -23.000000 -0.000000 1.000000 0.000000 0.440584 0.627819
3.000000 0.000000 -23.000000 0.000000 1.000000 0.000000 0.392886 0.627819
11.000000 0.000000 -24.999998 -0.000000 1.000000 0.000000 0.202097 0.580122
9.000000 0.000000 -24.999998 -0.000000 1.000000 0.000000 0.249794 0.580122
9.000000 0.000000 -23.000000 -0.000000 1.000000 0.000000 0.249794 0.627819
11.000000 0.000000 -23.000000 0.000000 1.000000 0.000000 0.202097 0.627819
-8.999998 0.000000 -23.000000 -0.000000 1.000000 0.000000 0.679071 0.627819
-10.999998 0.000000 -23.000000 -0.000000 1.000000 0.000000 0.726768 0.627819
-10.999998 0.000000 -21.000000 -0.000000 1.000000 0.000000 0.726768 0.675517
-8.999998 0.000000 -21.000000 0.000000 1.000000 0.000000 0.679071 0.675517
-10.999998 0.000000 -1.000000 -0.000000 1.000000 0.000000 0.783293 0.935956
-12.999998 0.000000 -1.000000 -0.000000 1.000000 0.000000 0.839951 0.935956
-12.999998 0.000000 1.000000 -0.000000 1.000000 0.000000 0.839951 0.992615
-10.999998 0.000000 1.000000 0.000000 1.000000 0.000000 0.783293 0.992615
11.000000 0.000000 -13.000000 -0.000000 1.000000 0.000000 0.202097 0.866306
9.000000 0.000000 -13.000000 -0.000000 1.000000 0.000000 0.249794 0.866306
9.000000 0.000000 -11.000000 -0.000000 1.000000 0.000000 0.249794 0.914004
11.000000 0.000000 -11.000000 0.000000 1.000000 0.000000 0.202097 0.914004
-12.999998 0.000000 -13.000000 -0.000000 1.000000 0.000000 0.774466 0.866306
-12.999998 0.000000 -11.000000 -0.000000 1.000000 0.000000 0.774466 0.914004
7.000000 0.000000 -13.000000 -0.000000 1.000000 0.000000 0.297492 0.866306
5.000000 0.000000 -13.000000 -0.000000 1.000000 0.000000 0.345189 0.866306
5.000000 0.000000 -11.000000 -0.000000 1.000000 0.000000 0.345189 0.914004
7.000000 0.000000 -11.000000 0.000000 1.000000 0.000000 0.297492 0.914004
-4.999999 0.000000 -13.000000 -0.000000 1.000000 0.000000 0.583676 0.866306
-6.999998 0.000000 -13.000000 -0.000000 1.000000 0.000000 0.631374 0.866306
-6.999998 0.000000 -11.000000 -0.000000 1.000000 0.000000 0.631374 0.914004
-4.999999 0.000000 -11.000000 0.000000 1.000000 0.000000 0.583676 0.914004
-6.999998 0.000000 -1.000000 -0.000000 1.000000 0.000000 0.669976 0.935956
-8.999998 0.000000 -1.000000 -0.000000 1.000000 0.000000 0.726634 0.935956
-8.999998 0.000000 1.000000 -0.000000 1.000000 0.000000 0.726634 0.992615
-6.999998 0.000000 1.000000 0.000000 1.000000 0.000000 0.669976 0.992615
-0.999999 0.000000 -13.000000 -0.000000 1.000000 0.000000 0.488281 0.866306
-2.999999 0.000000 -13.000000 -0.000000 1.000000 0.000000 0.535979 0.866306
-2.999999 0.000000 -11.000000 -0.000000 1.000000 0.000000 0.535979 0.914004
-0.999999 0.000000 -11.000000 0.000000 1.000000 0.000000 0.488281 0.914004
3.000000 0.000000 -13.000000 -0.000000 1.000000 0.000000 0.392886 0.866306
1.000001 0.000000 -13.000000 -0.000000 1.000000 0.000000 0.440584 0.866306
1.000001 0.000000 -11.000000 -0.000000 1.000000 0.000000 0.440584 0.914004
3.000000 0.000000 -11.000000 0.000000 1.000000 0.000000 0.392886 0.914004
12.999999 0.000000 -13.000000 -0.000000 1.000000 0.000000 0.154399 0.866306
12.999999 0.000000 -11.000000 0.000000 1.000000 0.000000 0.154399 0.914004
-2.999999 0.000000 -19.000000 -0.000000 1.000000 0.000000 0.535979 0.723214
-4.999999 0.000000 -19.000000 -0.000000 1.000000 0.000000 0.583676 0.723214
-4.999999 0.000000 -16.999998 -0.000000 1.000000 0.000000 0.583676 0.770912
-2.999999 0.000000 -16.999998 0.000000 1.000000 0.000000 0.535979 0.770912
-12.999998 0.000000 -23.000000 -0.000000 1.000000 0.000000 0.774466 0.627819
-12.999998 0.000000 -21.000000 -0.000000 1.000000 0.000000 0.774466 0.675517
12.999999 0.000000 -24.999998 -0.000000 1.000000 0.000000 0.154399 0.580122
12.999999 0.000000 -22.999998 0.000000 1.000000 0.000000 0.154399 0.627819
7.000000 0.000000 -24.999998 -0.000000 1.000000 0.000000 0.297492 0.580122
7.000000 0.000000 -23.000000 -0.000000 1.000000 0.000000 0.297492 0.627819
5.000000 0.000000 -24.999998 -0.000000 1.000000 0.000000 0.345189 0.580122
5.000000 0.000000 -23.000000 -0.000000 1.000000 0.000000 0.345189 0.627819
-0.999999 0.000000 -24.999998 -0.000000 1.000000 0.000000 0.488281 0.580122
-0.999999 0.000000 -23.000000 -0.000000 1.000000 0.000000 0.488281 0.627819
-2.999999 0.000000 -24.999998 -0.000000 1.000000 0.000000 0.535979 0.580122
-2.999999 0.000000 -23.000000 -0.000000 1.000000 0.000000 0.535979 0.627819
-4.999999 0.000000 -24.999998 -0.000000 1.000000 0.000000 0.583676 0.580122
-6.999998 0.000000 -24.999998 -0.000000 1.000000 0.000000 0.631374 0.580122
-6.999998 0.000000 -23.000000 -0.000000 1.000000 0.000000 0.631374 0.627819
-4.999999 0.000000 -23.000000 0.000000 1.000000 0.000000 0.583676 0.627819
-8.999998 0.000000 -24.999998 -0.000000 1.000000 0.000000 0.679071 0.580122
-10.999998 0.000000 -24.999998 -0.000000 1.000000 0.000000 0.726768 0.580122
-12.999998 0.000000 -24.999998 -0.000000 1.000000 0.000000 0.774466 0.580122
12.999999 0.000000 -26.999996 -0.000000 1.000000 0.000000 0.154399 0.532425
10.999999 0.000000 -26.999996 -0.000000 1.000000 0.000000 0.202097 0.532425
8.999999 0.000000 -26.999996 -0.000000 1.000000 0.000000 0.249794 0.532425
6.999999 0.000000 -26.999996 -0.000000 1.000000 0.000000 0.297492 0.532425
3.000000 0.000000 -26.999996 -0.000000 1.000000 0.000000 0.392886 0.532425
1.000000 0.000000 -26.999996 -0.000000 1.000000 0.000000 0.440584 0.532425
4.999999 0.000000 -26.999996 -0.000000 1.000000 0.000000 0.345189 0.532425
-0.999999 0.000000 -19.000000 -0.000000 1.000000 0.000000 0.488281 0.723214
-0.999999 0.000000 -16.999998 0.000000 1.000000 0.000000 0.488281 0.770912
-6.999998 0.000000 -19.000000 -0.000000 1.000000 0.000000 0.631374 0.723214
-6.999998 0.000000 -16.999998 -0.000000 1.000000 0.000000 0.631374 0.770912
-8.999998 0.000000 -19.000000 -0.000000 1.000000 0.000000 0.679071 0.723214
-8.999998 0.000000 -16.999998 -0.000000 1.000000 0.000000 0.679071 0.770912
-10.999998 0.000000 -19.000000 -0.000000 1.000000 0.000000 0.726768 0.723214
-12.999998 0.000000 -19.000000 -0.000000 1.000000 0.000000 0.774466 0.723214
-12.999998 0.000000 -16.999998 -0.000000 1.000000 0.000000 0.774466 0.770912
-10.999998 0.000000 -16.999998 0.000000 1.000000 0.000000 0.726768 0.770912
12.999999 0.000000 -20.999996 -0.000000 1.000000 0.000000 0.154399 0.675517
11.000000 0.000000 -20.999996 -0.000000 1.000000 0.000000 0.202097 0.675517
11.000000 0.000000 -18.999998 -0.000000 1.000000 0.000000 0.202097 0.723214
12.999999 0.000000 -18.999998 0.000000 1.000000 0.000000 0.154399 0.723214
9.000000 0.000000 -20.999998 -0.000000 1.000000 0.000000 0.249794 0.675517
7.000000 0.000000 -21.000000 -0.000000 1.000000 0.000000 0.297492 0.675517
7.000000 0.000000 -19.000000 -0.000000 1.000000 0.000000 0.297492 0.723214
9.000000 0.000000 -19.000000 0.000000 1.000000 0.000000 0.249794 0.723214
5.000000 0.000000 -21.000000 -0.000000 1.000000 0.000000 0.345189 0.675517
5.000000 0.000000 -19.000000 -0.000000 1.000000 0.000000 0.345189 0.723214
3.000000 0.000000 -21.000000 -0.000000 1.000000 0.000000 0.392886 0.675517
1.000001 0.000000 -21.000000 -0.000000 1.000000 0.000000 0.440584 0.675517
1.000001 0.000000 -19.000000 -0.000000 1.000000 0.000000 0.440584 0.723214
3.000000 0.000000 -19.000000 0.000000 1.000000 0.000000 0.392886 0.723214
-0.999999 0.000000 -21.000000 -0.000000 1.000000 0.000000 0.488281 0.675517
-2.999999 0.000000 -21.000000 -0.000000 1.000000 0.000000 0.535979 0.675517
-4.999999 0.000000 -21.000000 -0.000000 1.000000 0.000000 0.583676 0.675517
-6.999998 0.000000 -21.000000 -0.000000 1.000000 0.000000 0.631374 0.675517
1.000001 0.000000 -16.999998 0.000000 1.000000 0.000000 0.440584 0.770912
7.000000 0.000000 -16.999998 -0.000000 1.000000 0.000000 0.297492 0.770912
5.000000 0.000000 -16.999998 -0.000000 1.000000 0.000000 0.345189 0.770912
5.000000 0.000000 -15.000000 -0.000000 1.000000 0.000000 0.345189 0.818609
7.000000 0.000000 -15.000000 0.000000 1.000000 0.000000 0.297492 0.818609
11.000000 0.000000 -16.999998 -0.000000 1.000000 0.000000 0.202097 0.770912
9.000000 0.000000 -16.999998 -0.000000 1.000000 0.000000 0.249794 0.770912
9.000000 0.000000 -15.000000 -0.000000 1.000000 0.000000 0.249794 0.818609
11.000000 0.000000 -15.000000 0.000000 1.000000 0.000000 0.202097 0.818609
-0.999999 0.000000 -15.000000 -0.000000 1.000000 0.000000 0.488281 0.818609
1.000001 0.000000 -15.000000 0.000000 1.000000 0.000000 0.440584 0.818609
3.000000 0.000000 -16.999998 -0.000000 1.000000 0.000000 0.392886 0.770912
3.000000 0.000000 -15.000000 -0.000000 1.000000 0.000000 0.392886 0.818609
-2.999999 0.000000 -15.000000 -0.000000 1.000000 0.000000 0.535979 0.818609
-4.999999 0.000000 -15.000000 -0.000000 1.000000 0.000000 0.583676 0.818609
-6.999998 0.000000 -15.000000 -0.000000 1.000000 0.000000 0.631374 0.818609
-8.999998 0.000000 -15.000000 -0.000000 1.000000 0.000000 0.679071 0.818609
-10.999998 0.000000 -15.000000 -0.000000 1.000000 0.000000 0.726768 0.818609
-12.999998 0.000000 -15.000000 -0.000000 1.000000 0.000000 0.774466 0.818609
12.999999 0.000000 -15.000000 -0.000000 1.000000 0.000000 0.154399 0.818609
12.999999 0.000000 -16.999998 -0.000000 1.000000 0.000000 0.154399 0.770912
-1.000000 0.000000 -26.999996 -0.000000 1.000000 0.000000 0.488281 0.532425
-3.000000 0.000000 -26.999996 -0.000000 1.000000 0.000000 0.535979 0.532425
-4.999999 0.000000 -26.999996 -0.000000 1.000000 0.000000 0.583676 0.532425
-6.999999 0.000000 -26.999996 -0.000000 1.000000 0.000000 0.631374 0.532425
-8.999999 0.000000 -26.999996 -0.000000 1.000000 0.000000 0.679071 0.532425
-10.999999 0.000000 -26.999996 -0.000000 1.000000 0.000000 0.726768 0.532425
-12.999999 0.000000 -26.999996 -0.000000 1.000000 0.000000 0.774466 0.532425
-2.999999 0.000000 -1.000000 -0.000000 1.000000 0.000000 0.556659 0.935956
-4.999999 0.000000 -1.000000 -0.000000 1.000000 0.000000 0.613317 0.935956
-4.999999 0.000000 1.000000 -0.000000 1.000000 0.000000 0.613317 0.992615
-2.999999 0.000000 1.000000 0.000000 1.000000 0.000000 0.556659 0.992615
1.000001 0.000000 -1.000000 -0.000000 1.000000 0.000000 0.443341 0.935956
-0.999999 0.000000 -1.000000 -0.000000 1.000000 0.000000 0.500000 0.935956
-0.999999 0.000000 1.000000 -0.000000 1.000000 0.000000 0.500000 0.992615
1.000001 0.000000 1.000000 0.000000 1.000000 0.000000 0.443341 0.992615
5.000000 0.000000 -1.000000 -0.000000 1.000000 0.000000 0.330024 0.935956
3.000000 0.000000 -1.000000 -0.000000 1.000000 0.000000 0.386683 0.935956
3.000000 0.000000 1.000000 -0.000000 1.000000 0.000000 0.386683 0.992615
5.000000 0.000000 1.000000 0.000000 1.000000 0.000000 0.330024 0.992615
-14.999998 0.000000 -26.999996 -0.000000 1.000000 0.000000 0.822163 0.532425
-14.999998 0.000000 -24.999998 -0.000000 1.000000 0.000000 0.822163 0.580122
-14.999998 0.000000 -23.000000 -0.000000 1.000000 0.000000 0.822163 0.627819
-14.999998 0.000000 -21.000000 -0.000000 1.000000 0.000000 0.822163 0.675517
-14.999998 0.000000 -19.000000 -0.000000 1.000000 0.000000 0.822163 0.723214
-14.999998 0.000000 -16.999998 -0.000000 1.000000 0.000000 0.822163 0.770912
-14.999998 0.000000 -15.000000 -0.000000 1.000000 0.000000 0.822163 0.818609
-14.999998 0.000000 -13.000000 -0.000000 1.000000 0.000000 0.822163 0.866306
7.000000 0.000000 -1.000000 -0.000000 1.000000 0.000000 0.273366 0.935956
7.000000 0.000000 1.000000 0.000000 1.000000 0.000000 0.273366 0.992615
9.000000 0.000000 -1.000000 -0.000000 1.000000 0.000000 0.216707 0.935956
9.000000 0.000000 1.000000 0.000000 1.000000 0.000000 0.216707 0.992615
11.000000 0.000000 -1.000000 -0.000000 1.000000 0.000000 0.160049 0.935956
11.000000 0.000000 1.000000 0.000000 1.000000 0.000000 0.160049 0.992615
12.999999 0.000000 -1.000000 -0.000000 1.000000 0.000000 0.103390 0.935956
12.999999 0.000000 1.000000 0.000000 1.000000 0.000000 0.103390 0.992615
-14.999998 0.000000 -11.000000 -0.000000 1.000000 0.000000 0.822163 0.914004
-14.999998 0.000000 -1.000000 -0.000000 1.000000 0.000000 0.896610 0.935956
-14.999998 0.000000 1.000000 -0.000000 1.000000 0.000000 0.896610 0.992615
3 0 1 2
3 0 2 3
3 4 5 6
3 4 6 7
3 8 9 10
3 8 10 11
3 12 13 14
3 12 14 15
3 16 17 18
3 16 18 19
3 20 21 22
3 20 22 23
3 1 24 25
3 1 25 2
3 26 27 28
3 26 28 29
3 30 31 32
3 30 32 33
3 34 35 36
3 34 36 37
3 38 39 40
3 38 40 41
3 42 43 44
3 42 44 45
3 35 16 19
3 35 19 36
3 46 20 23
3 46 23 47
3 21 26 29
3 21 29 22
3 27 42 45
3 27 45 28
3 48 49 50
3 48 50 51
3 13 52 53
3 13 53 14
3 54 8 11
3 54 11 55
3 9 56 57
3 9 57 10
3 56 58 59
3 56 59 57
3 58 4 7
3 58 7 59
3 5 60 61
3 5 61 6
3 60 62 63
3 60 63 61
3 64 65 66
3 64 66 67
3 65 68 12
3 65 12 66
3 69 70 52
3 69 52 13
3 71 72 8
3 71 8 54
3 73 74 56
3 73 56 9
3 75 76 5
3 75 5 4
3 74 77 58
3 74 58 56
3 78 48 51
3 78 51 79
3 49 80 81
3 49 81 50
3 80 82 83
3 80 83 81
3 84 85 86
3 84 86 87
3 88 89 90
3 88 90 91
3 92 93 94
3 92 94 95
3 93 96 97
3 93 97 94
3 98 99 100
3 98 100 101
3 99 102 78
3 99 78 100
3 103 104 49
3 103 49 48
3 104 105 80
3 104 80 49
3 15 14 84
3 15 84 82
3 14 53 85
3 14 85 84
3 57 59 96
3 57 96 93
3 11 10 92
3 11 92 89
3 100 78 79
3 100 79 106
3 107 108 109
3 107 109 110
3 111 112 113
3 111 113 114
3 106 79 115
3 106 115 116
3 108 117 118
3 108 118 109
3 114 113 21
3 114 21 20
3 110 109 27
3 110 27 26
3 118 116 43
3 118 43 42
3 115 119 39
3 115 39 38
3 120 121 31
3 120 31 30
3 122 123 1
3 122 1 0
3 123 124 24
3 123 24 1
3 121 122 0
3 121 0 31
3 119 120 30
3 119 30 39
3 116 115 38
3 116 38 43
3 109 118 42
3 109 42 27
3 113 110 26
3 113 26 21
3 112 107 110
3 112 110 113
3 125 114 20
3 125 20 46
3 117 106 116
3 117 116 118
3 126 111 114
3 126 114 125
3 79 51 119
3 79 119 115
3 62 64 67
3 62 67 63
3 82 84 87
3 82 87 83
3 68 69 13
3 68 13 12
3 89 92 95
3 89 95 90
3 72 73 9
3 72 9 8
3 96 98 101
3 96 101 97
3 77 75 4
3 77 4 58
3 102 103 48
3 102 48 78
3 90 95 112
3 90 112 111
3 105 15 82
3 105 82 80
3 91 90 111
3 91 111 126
3 55 11 89
3 55 89 88
3 87 86 124
3 87 124 123
3 10 57 93
3 10 93 92
3 83 87 123
3 83 123 122
3 81 83 122
3 81 122 121
3 76 127 60
3 76 60 5
3 50 81 121
3 50 121 120
3 127 128 62
3 127 62 60
3 51 50 120
3 51 120 119
3 128 129 64
3 128 64 62
3 129 130 65
3 129 65 64
3 59 7 98
3 59 98 96
3 130 131 68
3 130 68 65
3 7 6 99
3 7 99 98
3 131 132 69
3 131 69 68
3 6 61 102
3 6 102 99
3 132 133 70
3 132 70 69
3 95 94 107
3 95 107 112
3 61 63 103
3 61 103 102
3 94 97 108
3 94 108 107
3 63 67 104
3 63 104 103
3 97 101 117
3 97 117 108
3 67 66 105
3 67 105 104
3 101 100 106
3 101 106 117
3 66 12 15
3 66 15 105
3 134 135 136
3 134 136 137
3 138 139 140
3 138 140 141
3 142 143 144
3 142 144 145
3 133 146 147
3 133 147 70
3 70 147 148
3 70 148 52
3 52 148 149
3 52 149 53
3 53 149 150
3 53 150 85
3 85 150 151
3 85 151 86
3 86 151 152
3 86 152 124
3 124 152 153
3 124 153 24
3 135 34 37
3 135 37 136
3 143 138 141
3 143 141 144
3 154 142 145
3 154 145 155
3 156 154 155
3 156 155 157
3 158 156 157
3 158 157 159
3 160 158 159
3 160 159 161
3 24 153 162
3 24 162 25
3 139 134 137
3 139 137 140
3 31 0 3
3 31 3 32
3 39 30 33
3 39 33 40
3 43 38 41
3 43 41 44
3 17 163 164
3 17 164 18
