ply
format ascii 1.0
comment Created by Blender 2.82 (sub 7) - www.blender.org, source file: ''
element vertex 245
property float x
property float y
property float z
property float nx
property float ny
property float nz
property float s
property float t
element face 212
property list uchar uint vertex_indices
end_header
-8.999998 0.000002 -13.000000 -0.000000 1.000000 0.000001 1.951192 -2.500000
-10.999998 0.000002 -13.000000 -0.000000 1.000000 0.000001 1.951191 -3.166666
-10.999998 0.000000 -11.000000 -0.000000 1.000000 0.000001 3.241880 -3.166666
-8.999998 0.000000 -11.000000 0.000000 1.000000 0.000001 3.241880 -2.500000
4.000000 0.000002 -24.999998 -0.000000 1.000000 0.000000 0.660499 2.166667
2.000001 0.000002 -24.999998 -0.000000 1.000000 0.000000 0.660499 1.500000
2.000001 0.000002 -23.000000 -0.000000 1.000000 0.000000 1.951188 1.500000
4.000000 0.000002 -23.000000 0.000000 1.000000 0.000000 1.951188 2.166667
-10.999998 0.000000 -1.000000 -0.000000 1.000000 0.000000 -4.500000 -3.166666
-12.999998 0.000000 -1.000000 -0.000000 1.000000 0.000000 -4.500000 -3.833333
-12.999998 -0.000000 1.000000 -0.000000 1.000000 0.000000 -3.209311 -3.833333
-10.999998 -0.000000 1.000000 0.000000 1.000000 0.000000 -3.209311 -3.166666
11.000000 0.000002 -13.000000 -0.000000 1.000000 0.000001 1.951191 4.166667
9.000000 0.000002 -13.000000 -0.000000 1.000000 0.000001 1.951191 3.500000
9.000000 0.000000 -11.000000 -0.000000 1.000000 0.000001 3.241880 3.500000
11.000000 0.000000 -11.000000 0.000000 1.000000 0.000001 3.241881 4.166667
-12.999998 0.000002 -13.000000 -0.000000 1.000000 0.000001 1.951191 -3.833333
-12.999998 0.000000 -11.000000 -0.000000 1.000000 0.000001 3.241880 -3.833333
7.000000 0.000002 -13.000000 -0.000000 1.000000 0.000001 1.951191 2.833334
5.000000 0.000002 -13.000000 -0.000000 1.000000 0.000001 1.951191 2.166667
5.000000 0.000000 -11.000000 -0.000000 1.000000 0.000001 3.241881 2.166667
7.000000 0.000000 -11.000000 0.000000 1.000000 0.000001 3.241880 2.833334
-4.999999 0.000002 -13.000000 -0.000000 1.000000 0.000001 1.951191 -1.166666
-6.999998 0.000002 -13.000000 -0.000000 1.000000 0.000001 1.951192 -1.833333
-6.999998 0.000000 -11.000000 -0.000000 1.000000 0.000001 3.241881 -1.833333
-4.999999 0.000000 -11.000000 0.000000 1.000000 0.000001 3.241881 -1.166667
-6.999998 0.000000 -1.000000 -0.000000 1.000000 0.000000 -4.500000 -1.833333
-8.999998 0.000000 -1.000000 -0.000000 1.000000 0.000000 -4.500000 -2.500000
-8.999998 -0.000000 1.000000 -0.000000 1.000000 0.000000 -3.209311 -2.500000
-6.999998 -0.000000 1.000000 0.000000 1.000000 0.000000 -3.209311 -1.833333
-0.999999 0.000002 -13.000000 -0.000000 1.000000 0.000001 1.951191 0.166667
-2.999999 0.000002 -13.000000 -0.000000 1.000000 0.000001 1.951191 -0.500000
-2.999999 0.000000 -11.000000 -0.000000 1.000000 0.000001 3.241881 -0.500000
-0.999999 0.000000 -11.000000 0.000000 1.000000 0.000001 3.241881 0.166667
3.000000 0.000002 -13.000000 -0.000000 1.000000 0.000001 1.951191 1.500000
1.000001 0.000002 -13.000000 -0.000000 1.000000 0.000001 1.951191 0.833334
1.000001 0.000000 -11.000000 -0.000000 1.000000 0.000001 3.241881 0.833334
3.000000 0.000000 -11.000000 0.000000 1.000000 0.000001 3.241881 1.500000
12.999999 0.000002 -13.000000 -0.000000 1.000000 0.000001 1.951191 4.833333
12.999999 0.000000 -11.000000 0.000000 1.000000 0.000001 3.241881 4.833333
13.999999 0.000002 -24.999998 -0.000000 1.000000 0.000000 0.660504 5.500000
12.000000 0.000002 -24.999998 -0.000000 1.000000 0.000000 0.660503 4.833333
12.000000 0.000002 -23.000000 -0.000000 1.000000 0.000000 1.951190 4.833333
13.999999 0.000002 -22.999998 0.000000 1.000000 0.000000 1.951191 5.500000
10.000000 0.000002 -24.999998 -0.000000 1.000000 0.000000 0.660502 4.166667
8.000000 0.000002 -24.999998 -0.000000 1.000000 0.000000 0.660502 3.500000
8.000000 0.000002 -23.000000 -0.000000 1.000000 0.000000 1.951188 3.500000
10.000000 0.000002 -23.000000 0.000000 1.000000 0.000000 1.951188 4.166667
6.000000 0.000002 -24.999998 -0.000000 1.000000 0.000000 0.660499 2.833334
6.000000 0.000002 -23.000000 -0.000000 1.000000 0.000000 1.951188 2.833333
0.000001 0.000002 -24.999998 -0.000000 1.000000 0.000000 0.660499 0.833334
0.000001 0.000002 -23.000000 -0.000000 1.000000 0.000000 1.951188 0.833334
-7.999998 0.000002 -23.000000 1.000000 0.000000 -0.000000 5.048376 0.166667
-7.999998 -0.699815 -24.999998 1.000000 0.000000 -0.000000 4.596752 -0.500000
-7.999998 0.000002 -24.999998 1.000000 0.000000 -0.000000 5.048376 -0.500000
-3.999999 0.000002 -24.999998 -0.000000 1.000000 0.000000 0.660499 -0.500000
-5.999998 0.000002 -24.999998 -0.000000 1.000000 0.000000 0.660499 -1.166666
-5.999998 0.000002 -23.000000 -0.000000 1.000000 0.000000 1.951188 -1.166666
-3.999999 0.000002 -23.000000 0.000000 1.000000 0.000000 1.951188 -0.500000
4.000000 0.000002 -23.000000 1.000000 0.000000 -0.000000 5.500000 -1.833334
4.000000 -0.699815 -24.999998 1.000000 0.000000 -0.000000 5.048376 -2.500000
4.000000 0.000002 -24.999998 1.000000 0.000000 -0.000000 5.500000 -2.500000
-7.999998 0.000002 -24.999998 0.000000 0.000000 1.000000 5.048376 -1.833333
-5.999998 -0.699815 -24.999998 0.000000 0.000000 1.000000 4.596752 -2.500000
-5.999998 0.000002 -24.999998 0.000000 0.000000 1.000000 5.048376 -2.500000
-9.999998 0.000002 -24.999998 -0.000000 1.000000 0.000000 0.660499 -2.500000
-11.999998 0.000002 -24.999998 -0.000000 1.000000 0.000000 0.660497 -3.166666
-11.999998 0.000002 -23.000000 -0.000000 1.000000 0.000000 1.951187 -3.166666
-9.999998 0.000002 -23.000000 0.000000 1.000000 0.000000 1.951188 -2.500000
13.999999 0.000002 -26.999996 -0.000000 1.000000 0.000000 -0.630186 5.500000
11.999999 0.000002 -26.999996 -0.000000 1.000000 0.000000 -0.630187 4.833333
9.999999 0.000002 -26.999996 -0.000000 1.000000 0.000000 -0.630188 4.166667
7.999999 0.000002 -26.999996 -0.000000 1.000000 0.000000 -0.630188 3.500000
4.000000 0.000002 -26.999996 -0.000000 1.000000 0.000000 -0.630188 2.166667
2.000000 0.000002 -26.999996 -0.000000 1.000000 0.000000 -0.630188 1.500000
5.999999 0.000002 -26.999996 -0.000000 1.000000 0.000000 -0.630188 2.833333
-1.999999 0.000002 -24.999998 -0.000000 1.000000 0.000000 0.660499 0.166667
-1.999999 0.000002 -23.000000 0.000000 1.000000 0.000000 1.951188 0.166667
-7.999998 0.000002 -24.999998 -0.000000 1.000000 0.000000 0.660499 -1.833332
-7.999998 0.000002 -23.000000 0.000000 1.000000 0.000000 1.951188 -1.833333
0.000000 0.000002 -26.999996 -0.000000 1.000000 0.000000 -0.630188 0.833334
-2.000000 0.000002 -26.999996 -0.000000 1.000000 0.000000 -0.630188 0.166667
-3.999999 0.000002 -26.999996 -0.000000 1.000000 0.000000 -0.630188 -0.499999
-5.999999 0.000002 -26.999996 -0.000000 1.000000 0.000000 -0.630188 -1.166666
-7.999999 0.000002 -26.999996 -0.000000 1.000000 0.000000 -0.630188 -1.833333
-9.999999 0.000002 -26.999996 -0.000000 1.000000 0.000000 -0.630188 -2.500000
-11.999999 0.000002 -26.999996 -0.000000 1.000000 0.000000 -0.630189 -3.166667
-2.999999 0.000000 -1.000000 -0.000000 1.000000 0.000000 -4.500000 -0.500000
-4.999999 0.000000 -1.000000 -0.000000 1.000000 0.000000 -4.500000 -1.166667
-4.999999 -0.000000 1.000000 -0.000000 1.000000 0.000000 -3.209311 -1.166667
-2.999999 -0.000000 1.000000 0.000000 1.000000 0.000000 -3.209311 -0.500000
1.000001 0.000000 -1.000000 -0.000000 1.000000 0.000000 -4.500000 0.833333
-0.999999 0.000000 -1.000000 -0.000000 1.000000 0.000000 -4.500000 0.166667
-0.999999 -0.000000 1.000000 -0.000000 1.000000 0.000000 -3.209311 0.166667
1.000001 -0.000000 1.000000 0.000000 1.000000 0.000000 -3.209311 0.833333
5.000000 0.000000 -1.000000 -0.000000 1.000000 0.000000 -4.500000 2.166667
3.000000 0.000000 -1.000000 -0.000000 1.000000 0.000000 -4.500000 1.500000
3.000000 -0.000000 1.000000 -0.000000 1.000000 0.000000 -3.209310 1.500000
5.000000 -0.000000 1.000000 0.000000 1.000000 0.000000 -3.209310 2.166667
-13.999998 0.000002 -26.999996 -0.000000 1.000000 0.000000 -0.630191 -3.833333
-13.999998 0.000002 -24.999998 -0.000000 1.000000 0.000000 0.660496 -3.833333
-13.999998 0.000002 -23.000000 1.000000 0.000000 -0.000000 5.500000 -2.500002
-13.999998 -0.699815 -24.999998 1.000000 0.000000 -0.000000 5.048376 -3.166667
-13.999998 0.000002 -24.999998 1.000000 0.000000 -0.000000 5.500000 -3.166667
-1.999999 0.000002 -23.000000 1.000000 0.000000 -0.000000 5.048376 -0.500000
-1.999999 -0.699815 -24.999998 1.000000 0.000000 -0.000000 4.596752 -1.166666
-1.999999 0.000002 -24.999998 1.000000 0.000000 -0.000000 5.048376 -1.166666
7.000000 0.000000 -1.000000 -0.000000 1.000000 0.000000 -4.500000 2.833333
7.000000 -0.000000 1.000000 0.000000 1.000000 0.000000 -3.209310 2.833333
9.000000 0.000000 -1.000000 -0.000000 1.000000 0.000000 -4.500000 3.500000
9.000000 -0.000000 1.000000 0.000000 1.000000 0.000000 -3.209310 3.500000
11.000000 0.000000 -1.000000 -0.000000 1.000000 0.000000 -4.500000 4.166667
11.000000 -0.000000 1.000000 0.000000 1.000000 0.000000 -3.209310 4.166667
12.999999 0.000000 -1.000000 -0.000000 1.000000 0.000000 -4.500000 4.833333
12.999999 -0.000000 1.000000 0.000000 1.000000 0.000000 -3.209310 4.833333
-14.999998 0.000002 -13.000000 -0.000000 1.000000 0.000001 1.951191 -4.500000
-14.999998 0.000000 -11.000000 -0.000000 1.000000 0.000001 3.241880 -4.500000
-14.999998 0.000000 -1.000000 -0.000000 1.000000 0.000000 -4.500000 -4.500000
-14.999998 -0.000000 1.000000 -0.000000 1.000000 0.000000 -3.209311 -4.500000
11.000000 0.000002 -13.000000 0.000000 0.000000 -1.000000 3.693505 4.166667
12.999999 0.000002 -13.000000 0.000000 0.000000 -1.000000 3.693505 4.833333
12.999999 -0.699815 -13.000000 0.000000 0.000000 -1.000000 3.241882 4.833333
11.000000 -0.699815 -13.000000 0.000000 0.000000 -1.000000 3.241881 4.166667
-0.999999 0.000002 -13.000000 0.000000 0.000000 -1.000000 3.693505 0.166667
1.000001 0.000002 -13.000000 0.000000 0.000000 -1.000000 3.693505 0.833333
1.000001 -0.699815 -13.000000 0.000000 0.000000 -1.000000 3.241881 0.833333
-0.999999 -0.699815 -13.000000 0.000000 0.000000 -1.000000 3.241881 0.166667
-1.999999 0.000002 -23.000000 0.000000 0.000000 1.000000 4.596752 -4.500000
-3.999999 0.000002 -23.000000 0.000000 0.000000 1.000000 4.596752 -3.833333
-3.999999 -0.699815 -23.000000 0.000000 0.000000 1.000000 4.145129 -3.833333
-1.999999 -0.699815 -23.000000 0.000000 -0.000000 1.000000 4.145129 -4.500000
-2.999999 0.000002 -13.000000 0.000000 0.000000 -1.000000 3.693505 -0.500000
-2.999999 -0.699815 -13.000000 0.000000 0.000000 -1.000000 3.241881 -0.500000
-4.999999 0.000002 -13.000000 0.000000 0.000000 -1.000000 3.693505 -1.166667
-4.999999 -0.699815 -13.000000 0.000000 0.000000 -1.000000 3.241881 -1.166667
8.000000 0.000002 -23.000000 0.000000 0.000000 1.000000 4.145129 -3.833333
6.000000 0.000002 -23.000000 0.000000 0.000000 1.000000 4.145129 -3.166666
6.000000 -0.699815 -23.000000 0.000000 0.000000 1.000000 3.693506 -3.166666
8.000000 -0.699815 -23.000000 0.000000 -0.000000 1.000000 3.693505 -3.833333
4.000000 0.000002 -24.999998 0.000000 0.000000 1.000000 4.596752 -0.500000
6.000000 -0.699815 -24.999998 0.000000 0.000000 1.000000 4.145129 -1.166666
6.000000 0.000002 -24.999998 0.000000 0.000000 1.000000 4.596752 -1.166666
-1.999999 0.000002 -24.999998 0.000000 0.000000 1.000000 4.596752 0.166667
0.000001 -0.699815 -24.999998 0.000000 0.000000 1.000000 4.145129 -0.500000
0.000001 0.000002 -24.999998 0.000000 0.000000 1.000000 4.596752 -0.500000
-12.999998 0.000002 -13.000000 0.000000 0.000000 -1.000000 3.693505 -3.833333
-10.999998 0.000002 -13.000000 0.000000 0.000000 -1.000000 3.693505 -3.166666
-10.999998 -0.699815 -13.000000 0.000000 0.000000 -1.000000 3.241881 -3.166666
-12.999998 -0.699815 -13.000000 0.000000 0.000000 -1.000000 3.241881 -3.833333
-9.999998 0.000002 -23.000000 0.000000 0.000000 1.000000 4.145129 -2.500000
-11.999998 0.000002 -23.000000 0.000000 0.000000 1.000000 4.145129 -1.833333
-11.999998 -0.699815 -23.000000 0.000000 0.000000 1.000000 3.693506 -1.833333
-9.999998 -0.699815 -23.000000 0.000000 -0.000000 1.000000 3.693505 -2.500000
-13.999998 0.000002 -24.999998 0.000000 0.000000 1.000000 5.048376 -3.166666
-11.999998 -0.699815 -24.999998 0.000000 0.000000 1.000000 4.596752 -3.833333
-11.999998 0.000002 -24.999998 0.000000 0.000000 1.000000 5.048376 -3.833333
12.000000 0.000002 -24.999998 -1.000000 -0.000000 -0.000000 4.145129 0.166667
12.000000 -0.699815 -23.000000 -1.000000 -0.000000 -0.000000 3.693505 -0.500000
12.000000 0.000002 -23.000000 -1.000000 -0.000000 -0.000000 4.145129 -0.500000
10.000000 0.000002 -23.000000 0.000000 0.000000 1.000000 4.145129 -4.500000
10.000000 -0.699815 -23.000000 0.000000 -0.000000 1.000000 3.693505 -4.500000
-5.999998 0.000002 -23.000000 0.000000 0.000000 1.000000 4.596752 -3.166667
-5.999998 -0.699815 -23.000000 0.000000 0.000000 1.000000 4.145129 -3.166667
-11.999998 0.000002 -24.999998 -1.000000 -0.000000 -0.000000 5.500000 -3.166667
-11.999998 -0.699815 -23.000000 -1.000000 -0.000000 -0.000000 5.048376 -3.833333
-11.999998 0.000002 -23.000000 -1.000000 -0.000000 -0.000000 5.500000 -3.833333
6.000000 0.000002 -24.999998 -1.000000 -0.000000 -0.000000 4.596752 -1.833333
6.000000 -0.699815 -23.000000 -1.000000 -0.000000 -0.000000 4.145129 -2.500000
6.000000 0.000002 -23.000000 -1.000000 -0.000000 -0.000000 4.596752 -2.500000
-14.999998 0.000002 -13.000000 0.000000 0.000000 -1.000000 3.693505 -4.500000
-14.999998 -0.699815 -13.000000 0.000000 0.000000 -1.000000 3.241881 -4.500000
9.000000 0.000002 -13.000000 0.000000 0.000000 -1.000000 3.693505 3.500000
9.000000 -0.699815 -13.000000 0.000000 0.000000 -1.000000 3.241882 3.500000
2.000001 0.000002 -23.000000 0.000000 0.000000 1.000000 4.145129 -1.166667
0.000001 0.000002 -23.000000 0.000000 0.000000 1.000000 4.145129 -0.500000
0.000001 -0.699815 -23.000000 0.000000 0.000000 1.000000 3.693506 -0.500000
2.000001 -0.699815 -23.000000 0.000000 -0.000000 1.000000 3.693505 -1.166667
13.999999 0.000002 -22.999998 -0.000001 0.000000 1.000000 5.500000 -4.500000
12.000000 0.000002 -23.000000 -0.000001 0.000000 1.000000 5.500000 -3.833333
12.000000 -0.699815 -23.000000 -0.000001 0.000000 1.000000 5.048377 -3.833333
13.999999 -0.699815 -22.999998 -0.000001 0.000000 1.000000 5.048376 -4.500000
7.000000 0.000002 -13.000000 0.000000 0.000000 -1.000000 3.693505 2.833333
7.000000 -0.699815 -13.000000 0.000000 0.000000 -1.000000 3.241881 2.833333
10.000000 0.000002 -24.999998 0.000000 0.000000 1.000000 5.048376 -2.500000
12.000000 -0.699815 -24.999998 0.000000 0.000000 1.000000 4.596752 -3.166666
12.000000 0.000002 -24.999998 0.000000 0.000000 1.000000 5.048376 -3.166666
10.000000 0.000002 -23.000000 1.000000 0.000000 -0.000000 5.048376 -1.166666
10.000000 -0.699815 -24.999998 1.000000 0.000000 -0.000000 4.596752 -1.833333
10.000000 0.000002 -24.999998 1.000000 0.000000 -0.000000 5.048376 -1.833333
-7.999998 0.000002 -23.000000 0.000000 0.000000 1.000000 4.145129 -3.166666
-7.999998 -0.699815 -23.000000 0.000000 -0.000000 1.000000 3.693505 -3.166666
5.000000 0.000002 -13.000000 0.000000 0.000000 -1.000000 3.693505 2.166667
5.000000 -0.699815 -13.000000 0.000000 0.000000 -1.000000 3.241881 2.166667
4.000000 0.000002 -23.000000 0.000000 0.000000 1.000000 4.145129 -1.833333
4.000000 -0.699815 -23.000000 0.000000 -0.000000 1.000000 3.693505 -1.833333
-8.999998 0.000002 -13.000000 0.000000 0.000000 -1.000000 3.693505 -2.500000
-8.999998 -0.699815 -13.000000 0.000000 0.000000 -1.000000 3.241881 -2.500000
3.000000 0.000002 -13.000000 0.000000 0.000000 -1.000000 3.693505 1.500000
3.000000 -0.699815 -13.000000 0.000000 0.000000 -1.000000 3.241881 1.500000
-6.999998 0.000002 -13.000000 0.000000 0.000000 -1.000000 3.693505 -1.833333
-6.999998 -0.699815 -13.000000 0.000000 0.000000 -1.000000 3.241881 -1.833333
-5.999998 0.000002 -24.999998 -1.000000 -0.000000 -0.000000 4.596752 -2.500000
-5.999998 -0.699815 -23.000000 -1.000000 -0.000000 -0.000000 4.145129 -3.166666
-5.999998 0.000002 -23.000000 -1.000000 -0.000000 -0.000000 4.596752 -3.166666
0.000001 0.000002 -24.999998 -1.000000 -0.000000 -0.000000 4.596752 -1.166666
0.000001 -0.699815 -23.000000 -1.000000 -0.000000 -0.000000 4.145129 -1.833333
0.000001 0.000002 -23.000000 -1.000000 -0.000000 -0.000000 4.596752 -1.833333
3.000000 -0.000000 4.996498 0.000000 1.000000 0.000000 -0.630191 1.500000
9.000000 -0.000000 4.996498 0.000000 1.000000 0.000000 -0.630191 3.500000
-0.999999 -0.000000 4.996498 0.000000 1.000000 0.000000 -0.630191 0.166667
12.999999 -0.000000 4.996498 0.000000 1.000000 0.000000 -0.630191 4.833333
5.000000 -0.000000 4.996498 0.000000 1.000000 0.000000 -0.630191 2.166667
7.000000 -0.000000 4.996498 0.000000 1.000000 0.000000 -0.630191 2.833333
1.000001 -0.000000 4.996498 0.000000 1.000000 0.000000 -0.630191 0.833333
-4.999999 -0.000000 4.996498 0.000000 1.000000 0.000000 -0.630191 -1.166667
11.000000 -0.000000 4.996498 0.000000 1.000000 0.000000 -0.630191 4.166667
-10.999998 -0.000000 4.996498 0.000000 1.000000 0.000000 -0.630191 -3.166666
-8.999998 -0.000000 4.996498 0.000000 1.000000 0.000000 -0.630191 -2.500000
-12.999998 -0.000000 4.996498 0.000000 1.000000 0.000000 -0.630191 -3.833333
-6.999998 -0.000000 4.996498 0.000000 1.000000 0.000000 -0.630191 -1.833333
-2.999999 -0.000000 4.996498 0.000000 1.000000 0.000000 -0.630191 -0.500000
-14.999998 -0.000000 4.996498 0.000000 1.000000 0.000000 -0.630191 -4.500000
-13.999998 0.000002 -23.000000 0.000000 0.000000 1.000000 5.048376 -4.500000
-15.999998 0.000002 -23.000000 0.000000 0.000000 1.000000 5.048376 -3.833333
-15.999998 -0.699815 -23.000000 0.000000 0.000000 1.000000 4.596753 -3.833333
-15.999998 0.000002 -24.999998 -0.000000 1.000000 0.000000 0.660496 -4.500000
-15.999998 0.000002 -23.000000 -0.000000 1.000000 0.000000 1.951186 -4.500000
-15.999998 0.000002 -26.999996 -0.000000 1.000000 0.000000 -0.630191 -4.500000
-13.999998 0.000002 -23.000000 0.000000 1.000000 0.000000 1.951186 -3.833333
-13.999998 -0.699815 -23.000000 -0.000000 0.000000 1.000000 4.596752 -4.500000
-7.999998 -0.699815 -23.000000 1.000000 0.000000 -0.000000 4.596752 0.166667
4.000000 -0.699815 -23.000000 1.000000 0.000000 -0.000000 5.048376 -1.833334
-7.999998 -0.699815 -24.999998 0.000000 -0.000000 1.000000 4.596753 -1.833333
-13.999998 -0.699815 -23.000000 1.000000 0.000000 -0.000000 5.048376 -2.500002
-1.999999 -0.699815 -23.000000 1.000000 0.000000 -0.000000 4.596752 -0.500000
4.000000 -0.699815 -24.999998 0.000000 -0.000000 1.000000 4.145129 -0.500000
-1.999999 -0.699815 -24.999998 0.000000 -0.000000 1.000000 4.145129 0.166667
-13.999998 -0.699815 -24.999998 0.000000 -0.000000 1.000000 4.596753 -3.166666
12.000000 -0.699815 -24.999998 -1.000000 0.000000 0.000000 3.693505 0.166667
-11.999998 -0.699815 -24.999998 -1.000000 0.000000 0.000000 5.048377 -3.166667
6.000000 -0.699815 -24.999998 -1.000000 0.000000 0.000000 4.145129 -1.833333
10.000000 -0.699815 -24.999998 0.000000 -0.000000 1.000000 4.596753 -2.500000
10.000000 -0.699815 -23.000000 1.000000 0.000000 -0.000000 4.596752 -1.166666
-5.999998 -0.699815 -24.999998 -1.000000 0.000000 0.000000 4.145129 -2.500000
0.000001 -0.699815 -24.999998 -1.000000 0.000000 0.000000 4.145129 -1.166666
3 0 1 2
3 0 2 3
3 4 5 6
3 4 6 7
3 8 9 10
3 8 10 11
3 12 13 14
3 12 14 15
3 1 16 17
3 1 17 2
3 18 19 20
3 18 20 21
3 22 23 24
3 22 24 25
3 26 27 28
3 26 28 29
3 30 31 32
3 30 32 33
3 34 35 36
3 34 36 37
3 27 8 11
3 27 11 28
3 38 12 15
3 38 15 39
3 13 18 21
3 13 21 14
3 19 34 37
3 19 37 20
3 40 41 42
3 40 42 43
3 44 45 46
3 44 46 47
3 45 48 49
3 45 49 46
3 5 50 51
3 5 51 6
3 52 53 54
3 55 56 57
3 55 57 58
3 59 60 61
3 62 63 64
3 65 66 67
3 65 67 68
3 69 70 41
3 69 41 40
3 71 72 45
3 71 45 44
3 73 74 5
3 73 5 4
3 72 75 48
3 72 48 45
3 76 55 58
3 76 58 77
3 78 65 68
3 78 68 79
3 70 71 44
3 70 44 41
3 75 73 4
3 75 4 48
3 74 80 50
3 74 50 5
3 80 81 76
3 80 76 50
3 81 82 55
3 81 55 76
3 82 83 56
3 82 56 55
3 83 84 78
3 83 78 56
3 84 85 65
3 84 65 78
3 85 86 66
3 85 66 65
3 87 88 89
3 87 89 90
3 91 92 93
3 91 93 94
3 95 96 97
3 95 97 98
3 86 99 100
3 86 100 66
3 101 102 103
3 104 105 106
3 88 26 29
3 88 29 89
3 96 91 94
3 96 94 97
3 107 95 98
3 107 98 108
3 109 107 108
3 109 108 110
3 111 109 110
3 111 110 112
3 113 111 112
3 113 112 114
3 16 115 116
3 16 116 17
3 92 87 90
3 92 90 93
3 23 0 3
3 23 3 24
3 31 22 25
3 31 25 32
3 35 30 33
3 35 33 36
3 9 117 118
3 9 118 10
3 119 120 121
3 119 121 122
3 123 124 125
3 123 125 126
3 127 128 129
3 127 129 130
3 131 123 126
3 131 126 132
3 133 131 132
3 133 132 134
3 135 136 137
3 135 137 138
3 139 140 141
3 142 143 144
3 145 146 147
3 145 147 148
3 149 150 151
3 149 151 152
3 153 154 155
3 156 157 158
3 159 135 138
3 159 138 160
3 128 161 162
3 128 162 129
3 163 164 165
3 166 167 168
3 169 145 148
3 169 148 170
3 171 119 122
3 171 122 172
3 173 174 175
3 173 175 176
3 177 178 179
3 177 179 180
3 181 171 172
3 181 172 182
3 183 184 185
3 186 187 188
3 189 149 152
3 189 152 190
3 191 181 182
3 191 182 192
3 193 173 176
3 193 176 194
3 146 195 196
3 146 196 147
3 197 191 192
3 197 192 198
3 195 199 200
3 195 200 196
3 124 197 198
3 124 198 125
3 201 202 203
3 204 205 206
3 199 133 134
3 199 134 200
3 94 207 97
3 108 208 110
3 90 209 93
3 112 210 114
3 97 211 98
3 98 212 108
3 93 213 94
3 29 214 89
3 110 215 112
3 10 216 11
3 11 217 28
3 118 218 10
3 28 219 29
3 89 220 90
3 94 213 207
3 108 212 208
3 90 220 209
3 112 215 210
3 97 207 211
3 98 211 212
3 93 209 213
3 29 219 214
3 110 208 215
3 10 218 216
3 11 216 217
3 118 221 218
3 28 217 219
3 89 214 220
3 222 223 224
3 100 225 226
3 99 227 225
3 100 99 225
3 228 100 226
3 229 222 224
3 52 230 53
3 59 231 60
3 62 232 63
3 101 233 102
3 104 234 105
3 139 235 140
3 142 236 143
3 153 237 154
3 156 238 157
3 163 239 164
3 166 240 167
3 183 241 184
3 186 242 187
3 201 243 202
3 204 244 205
