ply
format ascii 1.0
comment Created by Blender 2.80 (sub 75) - www.blender.org, source file: ''
element vertex 90
property float x
property float y
property float z
property float nx
property float ny
property float nz
property float s
property float t
element face 140
property list uchar uint vertex_indices
end_header
-0.999999 0.000000 -9.000000 -0.000000 1.000000 0.000000 -0.514745 2.434633
-2.999999 0.000000 -9.000000 -0.000000 1.000000 0.000000 -1.233779 2.434633
-2.999999 0.000000 -7.000000 -0.000000 1.000000 0.000000 -1.233780 1.466492
-0.999999 0.000000 -7.000000 0.000000 1.000000 0.000000 -0.514746 1.466492
-4.999999 0.000000 -9.000000 -0.000000 1.000000 0.000000 -1.952813 2.434633
-4.999999 0.000000 -7.000000 -0.000000 1.000000 0.000000 -1.952813 1.466492
9.000000 0.000000 -11.000000 -0.000000 1.000000 0.000000 3.080422 3.402766
7.000000 0.000000 -11.000000 -0.000000 1.000000 0.000000 2.361389 3.402768
7.000000 0.000000 -9.000000 -0.000000 1.000000 0.000000 2.361389 2.434628
9.000000 0.000000 -9.000000 0.000000 1.000000 0.000000 3.080421 2.434626
12.999999 0.000000 -7.000000 -0.000000 1.000000 0.000000 4.518484 1.466484
11.000000 0.000000 -7.000000 -0.000000 1.000000 0.000000 3.799454 1.466485
11.000000 0.000000 -5.000000 -0.000000 1.000000 0.000000 3.799454 0.498346
12.999999 0.000000 -5.000000 0.000000 1.000000 0.000000 4.518484 0.498345
5.000000 0.000000 -9.000000 -0.000000 1.000000 0.000000 1.642354 2.434628
5.000000 0.000000 -7.000000 -0.000000 1.000000 0.000000 1.642354 1.466489
7.000000 0.000000 -7.000000 0.000000 1.000000 0.000000 2.361387 1.466488
11.000000 0.000000 -9.000000 -0.000000 1.000000 0.000000 3.799455 2.434625
9.000000 0.000000 -7.000000 -0.000000 1.000000 0.000000 3.080420 1.466487
5.000000 0.000000 -11.000000 -0.000000 1.000000 0.000000 1.642355 3.402769
3.000000 0.000000 -11.000000 -0.000000 1.000000 0.000000 0.923323 3.402771
3.000000 0.000000 -9.000000 -0.000000 1.000000 0.000000 0.923322 2.434630
-10.999998 0.000000 -11.000000 -0.000000 1.000000 0.000000 -4.109916 3.402777
-12.999998 0.000000 -11.000000 -0.000000 1.000000 0.000000 -4.828951 3.402777
-12.999998 0.000000 -9.000000 -0.000000 1.000000 0.000000 -4.828950 2.434634
-10.999998 0.000000 -9.000000 0.000000 1.000000 0.000000 -4.109916 2.434634
12.999999 0.000000 -11.000000 -0.000000 1.000000 0.000000 4.518487 3.402763
11.000000 0.000000 -11.000000 -0.000000 1.000000 0.000000 3.799457 3.402764
12.999999 0.000000 -9.000000 0.000000 1.000000 0.000000 4.518486 2.434623
1.000001 0.000000 -11.000000 -0.000000 1.000000 0.000000 0.204289 3.402772
-0.999999 0.000000 -11.000000 -0.000000 1.000000 0.000000 -0.514744 3.402773
1.000001 0.000000 -9.000000 0.000000 1.000000 0.000000 0.204288 2.434631
-6.999998 0.000000 -11.000000 -0.000000 1.000000 0.000000 -2.671847 3.402776
-8.999998 0.000000 -11.000000 -0.000000 1.000000 0.000000 -3.390881 3.402777
-8.999998 0.000000 -9.000000 -0.000000 1.000000 0.000000 -3.390882 2.434634
-6.999998 0.000000 -9.000000 0.000000 1.000000 0.000000 -2.671847 2.434633
-2.999999 0.000000 -11.000000 -0.000000 1.000000 0.000000 -1.233779 3.402774
-4.999999 0.000000 -11.000000 -0.000000 1.000000 0.000000 -1.952812 3.402775
3.000000 0.000000 -7.000000 -0.000000 1.000000 0.000000 0.923321 1.466490
7.000000 0.000000 -5.000000 -0.000000 1.000000 0.000000 2.361387 0.498348
9.000000 0.000000 -5.000000 0.000000 1.000000 0.000000 3.080420 0.498347
5.000000 0.000000 -5.000000 -0.000000 1.000000 0.000000 1.642353 0.498349
-10.999998 0.000000 -7.000000 -0.000000 1.000000 0.000000 -4.109916 1.466493
-8.999998 0.000000 -7.000000 0.000000 1.000000 0.000000 -3.390882 1.466493
1.000001 0.000000 -7.000000 -0.000000 1.000000 0.000000 0.204288 1.466491
-12.999998 0.000000 -7.000000 -0.000000 1.000000 0.000000 -4.828950 1.466492
-6.999998 0.000000 -7.000000 -0.000000 1.000000 0.000000 -2.671847 1.466492
3.000000 0.000000 -5.000000 -0.000000 1.000000 0.000000 0.923320 0.498350
-0.999999 0.000000 -5.000000 -0.000000 1.000000 0.000000 -0.514746 0.498351
1.000001 0.000000 -5.000000 0.000000 1.000000 0.000000 0.204287 0.498351
-4.999999 0.000000 -5.000000 -0.000000 1.000000 0.000000 -1.952813 0.498352
-2.999999 0.000000 -5.000000 0.000000 1.000000 0.000000 -1.233780 0.498352
-8.999998 0.000000 -5.000000 -0.000000 1.000000 0.000000 -3.390882 0.498352
-6.999998 0.000000 -5.000000 0.000000 1.000000 0.000000 -2.671847 0.498352
-12.999998 0.000000 -5.000000 -0.000000 1.000000 0.000000 -4.828950 0.498351
-10.999998 0.000000 -5.000000 0.000000 1.000000 0.000000 -4.109915 0.498352
9.000000 0.000000 -3.000000 -0.000000 1.000000 0.000000 3.080418 -0.469792
11.000000 0.000000 -3.000000 0.000000 1.000000 0.000000 3.799451 -0.469792
5.000000 0.000000 -3.000000 -0.000000 1.000000 0.000000 1.642352 -0.469790
7.000000 0.000000 -3.000000 0.000000 1.000000 0.000000 2.361386 -0.469791
1.000001 0.000000 -3.000000 -0.000000 1.000000 0.000000 0.204287 -0.469789
3.000000 0.000000 -3.000000 0.000000 1.000000 0.000000 0.923320 -0.469789
-2.999999 0.000000 -3.000000 -0.000000 1.000000 0.000000 -1.233780 -0.469788
-0.999999 0.000000 -3.000000 0.000000 1.000000 0.000000 -0.514746 -0.469788
-6.999998 0.000000 -3.000000 -0.000000 1.000000 0.000000 -2.671847 -0.469788
-4.999999 0.000000 -3.000000 0.000000 1.000000 0.000000 -1.952813 -0.469788
-10.999998 0.000000 -3.000000 -0.000000 1.000000 0.000000 -4.109914 -0.469789
-8.999998 0.000000 -3.000000 0.000000 1.000000 0.000000 -3.390881 -0.469788
12.999999 0.000000 -3.000000 -0.000000 1.000000 0.000000 4.518483 -0.469794
11.000000 0.000000 -1.000000 -0.000000 1.000000 0.000000 3.799451 -1.437931
12.999999 0.000000 -1.000000 0.000000 1.000000 0.000000 4.518482 -1.437933
7.000000 0.000000 -1.000000 -0.000000 1.000000 0.000000 2.361386 -1.437931
9.000000 0.000000 -1.000000 0.000000 1.000000 0.000000 3.080418 -1.437931
3.000000 0.000000 -1.000000 -0.000000 1.000000 0.000000 0.923319 -1.437929
5.000000 0.000000 -1.000000 0.000000 1.000000 0.000000 1.642352 -1.437929
-0.999999 0.000000 -1.000000 -0.000000 1.000000 0.000000 -0.514747 -1.437928
1.000001 0.000000 -1.000000 0.000000 1.000000 0.000000 0.204286 -1.437929
-4.999999 0.000000 -1.000000 -0.000000 1.000000 0.000000 -1.952814 -1.437928
-2.999999 0.000000 -1.000000 0.000000 1.000000 0.000000 -1.233780 -1.437928
-8.999998 0.000000 -1.000000 -0.000000 1.000000 0.000000 -3.390880 -1.437929
-6.999998 0.000000 -1.000000 0.000000 1.000000 0.000000 -2.671847 -1.437929
-12.999998 0.000000 -3.000000 -0.000000 1.000000 0.000000 -4.828950 -0.469790
-12.999998 0.000000 -1.000000 -0.000000 1.000000 0.000000 -4.828949 -1.437932
-10.999998 0.000000 -1.000000 0.000000 1.000000 0.000000 -4.109915 -1.437931
-14.999998 0.000000 -3.000000 -0.000000 1.000000 0.000000 -5.547984 -0.469791
-14.999998 0.000000 -1.000000 -0.000000 1.000000 0.000000 -5.547982 -1.437933
-14.999998 0.000000 -5.000000 -0.000000 1.000000 0.000000 -5.547985 0.498350
-14.999998 0.000000 -7.000000 -0.000000 1.000000 0.000000 -5.547983 1.466492
-14.999998 0.000000 -9.000000 -0.000000 1.000000 0.000000 -5.547985 2.434634
-14.999998 0.000000 -11.000000 -0.000000 1.000000 0.000000 -5.547986 3.402777
3 0 1 2
3 0 2 3
3 1 4 5
3 1 5 2
3 6 7 8
3 6 8 9
3 10 11 12
3 10 12 13
3 8 14 15
3 8 15 16
3 17 9 18
3 17 18 11
3 19 20 21
3 19 21 14
3 22 23 24
3 22 24 25
3 26 27 17
3 26 17 28
3 29 30 0
3 29 0 31
3 32 33 34
3 32 34 35
3 36 37 4
3 36 4 1
3 14 21 38
3 14 38 15
3 18 16 39
3 18 39 40
3 16 15 41
3 16 41 39
3 34 25 42
3 34 42 43
3 11 18 40
3 11 40 12
3 21 31 44
3 21 44 38
3 25 24 45
3 25 45 42
3 4 35 46
3 4 46 5
3 9 8 16
3 9 16 18
3 30 36 1
3 30 1 0
3 33 22 25
3 33 25 34
3 37 32 35
3 37 35 4
3 15 38 47
3 15 47 41
3 44 3 48
3 44 48 49
3 2 5 50
3 2 50 51
3 46 43 52
3 46 52 53
3 42 45 54
3 42 54 55
3 12 40 56
3 12 56 57
3 39 41 58
3 39 58 59
3 47 49 60
3 47 60 61
3 48 51 62
3 48 62 63
3 50 53 64
3 50 64 65
3 52 55 66
3 52 66 67
3 68 57 69
3 68 69 70
3 56 59 71
3 56 71 72
3 58 61 73
3 58 73 74
3 60 63 75
3 60 75 76
3 62 65 77
3 62 77 78
3 64 67 79
3 64 79 80
3 66 81 82
3 66 82 83
3 67 66 83
3 67 83 79
3 65 64 80
3 65 80 77
3 63 62 78
3 63 78 75
3 61 60 76
3 61 76 73
3 59 58 74
3 59 74 71
3 57 56 72
3 57 72 69
3 55 54 81
3 55 81 66
3 53 52 67
3 53 67 64
3 51 50 65
3 51 65 62
3 49 48 63
3 49 63 60
3 41 47 61
3 41 61 58
3 38 44 49
3 38 49 47
3 3 2 51
3 3 51 48
3 5 46 53
3 5 53 50
3 43 42 55
3 43 55 52
3 13 12 57
3 13 57 68
3 40 39 59
3 40 59 56
3 81 84 85
3 81 85 82
3 54 86 84
3 54 84 81
3 45 87 86
3 45 86 54
3 24 88 87
3 24 87 45
3 23 89 88
3 23 88 24
3 35 34 43
3 35 43 46
3 27 6 9
3 27 9 17
3 31 0 3
3 31 3 44
3 7 19 14
3 7 14 8
3 20 29 31
3 20 31 21
3 28 17 11
3 28 11 10
