ply
format ascii 1.0
comment Created by Blender 2.82 (sub 7) - www.blender.org, source file: ''
element vertex 12
property float x
property float y
property float z
property float nx
property float ny
property float nz
property float s
property float t
element face 6
property list uchar uint vertex_indices
end_header
13.000000 -3.676037 -27.000000 -0.000000 0.000000 1.000000 0.964964 0.285149
-15.000000 10.000000 -27.000000 -0.000000 0.000000 1.000000 0.704593 1.001539
-15.000000 -3.676037 -27.000000 -0.000000 0.000000 1.000000 0.704593 0.285149
13.000000 -3.676037 4.996498 -1.000000 0.000000 0.000000 0.492719 0.285149
13.000000 10.000000 -27.000000 -1.000000 0.000000 0.000000 -0.325113 1.001539
13.000000 -3.676037 -27.000000 -1.000000 0.000000 0.000000 -0.325113 0.285149
-15.000000 -3.676037 -27.000000 1.000000 -0.000000 0.000000 0.758905 0.285149
-15.000000 10.000000 4.996498 1.000000 -0.000000 0.000000 -0.080113 1.001540
-15.000000 -3.676037 4.996498 1.000000 -0.000000 0.000000 -0.080113 0.285149
13.000000 10.000000 -27.000000 -0.000000 0.000000 1.000000 0.964964 1.001539
13.000000 10.000000 4.996498 -1.000000 0.000000 0.000000 0.492719 1.001539
-15.000000 10.000000 -27.000000 1.000000 0.000000 0.000000 0.758905 1.001539
3 0 1 2
3 3 4 5
3 6 7 8
3 0 9 1
3 3 10 4
3 6 11 7
